<svg id="svg14" xmlns="http://www.w3.org/2000/svg" viewBox="0 0 560 120"><defs><style>.cls-1{fill:none;}.cls-2{fill:#8a3eb0;}.cls-3{fill:#fcfcfc;}</style></defs><g id="g5"><path id="canvas_background" data-name="canvas background" class="cls-1" d="M-1-1H561V121H-1Z"/></g><g id="g12"><path id="icon_container" data-name="icon container" class="cls-2" d="M230.13,16.65h-.66l-.39,0c-.18,0-.48,0-.67.09s-.53.1-.75.16l-.68.19c-.16.05-.46.16-.67.25a8.64,8.64,0,0,0-.85.38c-.25.12-1,.55-1.67.93L221.61,20l-1.25.72-1.07.62-1.66.95-2.17,1.25-2,1.15-1.25.71-1.25.72c-.38.23-1.28.74-2,1.15l-2,1.14-1.24.72-1.25.72-1.66,1L200.67,32l-2.49,1.44-2,1.15-1.4.8-.84.5-.43.31c-.16.11-.39.29-.52.4l-.64.59c-.22.22-.5.51-.62.65l-.41.5c-.1.14-.25.34-.32.45l-.31.49c-.09.16-.24.43-.33.62s-.22.47-.29.64-.16.44-.21.6-.13.41-.17.58-.1.42-.12.56-.07.4-.09.57-.05.46-.07.64,0,6.17,0,18.49,0,18.27,0,18.5.05.47.07.64.06.42.09.56.09.43.14.62.13.5.19.67.17.45.25.63.2.44.28.6.2.39.27.51.2.31.28.44l.34.47.41.51c.12.14.4.43.62.64s.51.48.64.59l.52.41c.15.11.34.25.43.3s.46.28.84.5l1.4.81,2,1.15L200.67,92l2.17,1.25,1.66,1,1.25.71,1.24.72,2,1.15,2,1.14,1.25.72,1.25.72,2,1.15,2.17,1.25,1.66,1,1.07.62,1.25.72,2.18,1.25c.67.39,1.42.81,1.67.94s.63.3.85.38.51.2.67.25l.68.19c.22.06.56.13.76.16s.5.08.65.09.57,0,1,0,.76,0,1,0l.57-.08.55-.13.67-.19.57-.22.46-.22a4.5,4.5,0,0,0,.43-.23l.44-.26,1-.59,1.25-.72,1.23-.71,2-1.14,2.18-1.26,1.25-.71.74-.43.74-.43,1.25-.72L248.54,98,251,96.55l2-1.15,1.66-1,1.28-.73,1.81-1,2.9-1.67,2.67-1.54,1.9-1.1c.35-.2.78-.45.95-.57s.44-.3.58-.41.37-.29.51-.41.39-.36.55-.53.4-.43.51-.57a7.19,7.19,0,0,0,.45-.62,7,7,0,0,0,.43-.73c.1-.19.24-.5.31-.67s.19-.49.26-.71.15-.52.19-.69.08-.41.11-.55.06-.41.08-.61.05-.52.07-.72,0-6.68,0-18.59,0-18.35,0-18.59,0-.52-.07-.72-.06-.46-.08-.6-.08-.39-.11-.56-.13-.47-.19-.69-.19-.53-.26-.7-.21-.48-.31-.68-.31-.54-.45-.76-.38-.53-.53-.71a8.65,8.65,0,0,0-.6-.64c-.19-.18-.49-.44-.66-.59l-.72-.52c-.22-.14-.67-.42-1-.62l-1.9-1.1-2.77-1.59-2.9-1.67-1.71-1-1.28-.73L253,28.57l-2-1.15L248.54,26l-2.17-1.24L245.12,24l-.74-.43-.74-.43-1.25-.72-2.18-1.25-2-1.15L237,19.33l-1.25-.72-1-.56-.41-.25-.47-.25a4.37,4.37,0,0,0-.49-.23l-.57-.22-.67-.2-.57-.12a4.89,4.89,0,0,0-.54-.08c-.18,0-.59-.05-.92-.05Z"/><path id="path1142977" class="cls-3" d="M472.22,16.92a7.57,7.57,0,0,0-3.81,1c-3.94,2.1-4.31,5.79-4.31,8.87V95a8.19,8.19,0,0,0,16.37,0V46.23L523.2,98.57a13.31,13.31,0,0,0,4.19,3.69,7.83,7.83,0,0,0,8.49-.86C538.35,99.31,539,96.84,539,94V49.44a8.19,8.19,0,1,0-16.37.12V73.94L479.36,20.87C477,18.1,474.5,17,472.22,16.92Zm-392.43,0a8.19,8.19,0,0,0,0,16.37,8.19,8.19,0,0,0,0-16.37Zm36.42,0a8.19,8.19,0,0,0,0,16.37h17.86V95a8.13,8.13,0,1,0,16.25,0V25.05a7.9,7.9,0,0,0-8.13-8.13Zm52,0a8.19,8.19,0,1,0,8.13,8.12A8.22,8.22,0,0,0,168.17,16.93Zm133.39,0a8.19,8.19,0,0,0-8.13,8.12V95a8.19,8.19,0,0,0,16.38,0V70.23l28.69,30.42a8.19,8.19,0,1,0,11.82-11.33l-30.54-31,11-10.1a8.14,8.14,0,1,0-11.57-11.45l-9.36,10V25a8.23,8.23,0,0,0-8.25-8.12Zm40.51,0a8.19,8.19,0,1,0,8.25,8.12A8.2,8.2,0,0,0,342.07,16.93Zm44.4,0a8.19,8.19,0,0,0-8.12,8.12V95a8.19,8.19,0,0,0,8.12,8.13h41.87a8.19,8.19,0,0,0,0-16.38H394.72v-19h28.57a7.83,7.83,0,1,0,0-15.64H394.72V33.29h8.75a8.19,8.19,0,0,0,0-16.37Zm41.5,0a8.19,8.19,0,1,0,8.13,8.12A8.23,8.23,0,0,0,428,16.93Zm102.86,0A8.13,8.13,0,1,0,539,25.05,8.15,8.15,0,0,0,530.83,16.93ZM35.31,17a7.85,7.85,0,0,0-4.52,1.31A8.15,8.15,0,0,0,28.2,29.49L47.78,60,28.2,90.56a8.31,8.31,0,0,0,2.59,11.32A8.14,8.14,0,0,0,42,99.3L57.51,75.17,72.9,99.3a8.16,8.16,0,1,0,13.79-8.74L67.11,60l6.28-9.85a8.11,8.11,0,0,0-13.67-8.74l-2.21,3.45L42,20.74A8.19,8.19,0,0,0,35.31,17Z"/><path id="icon" class="cls-3" d="M229.16,36.27h0l-.92,0-.65,0-.6,0-.63.06c-.18,0-.53,0-.77.09l-.84.12-.85.16-.76.16-.66.16-.69.19-.75.22-.83.28-.78.29-.74.3-.7.3-.87.42-.88.46c-.19.1-.5.27-.69.39l-.66.4-.65.41-.66.46-.67.48-.7.55c-.21.16-.51.41-.68.56s-.43.38-.59.53-.44.4-.61.57l-.63.63c-.18.18-.44.45-.58.61l-.53.6c-.14.16-.4.48-.58.71s-.43.53-.55.7l-.46.63-.45.66-.42.65-.4.66-.38.69c-.11.19-.29.54-.41.78s-.3.61-.39.8-.23.51-.31.71-.23.53-.31.74-.21.54-.27.71l-.24.68-.23.74c-.06.2-.16.53-.21.74s-.14.54-.19.75-.14.59-.19.84-.11.59-.15.78-.08.46-.1.61-.06.42-.08.6-.06.46-.08.64,0,.46-.06.63,0,.44,0,.6,0,.48,0,.71,0,.66,0,.94,0,.71,0,1,0,.56,0,.72,0,.43,0,.6,0,.45.06.63.05.47.08.65.06.46.09.64l.09.56c0,.13.08.41.12.63s.11.54.16.74.12.51.17.69.12.48.17.66.16.52.23.75.2.61.28.83.21.57.28.78.22.53.3.74l.31.69c.08.18.27.58.42.88s.35.69.45.87.27.49.39.69l.4.67.42.65.45.66.49.66c.14.19.38.51.55.71s.41.51.55.67l.53.6.57.6.6.61c.17.16.4.38.52.48l.43.4.44.38.55.45.68.53.67.48.66.46.65.41.67.41.69.39.77.4.8.39.7.31.75.31.7.26.63.22.57.19.6.18.68.18.66.16.74.16.85.16.77.12.59.07.55.06.6,0,.71,0,1.33,0,1.32,0,.72,0,.6,0,.62-.06.52-.07.51-.08.68-.12.6-.11.61-.14.75-.18.78-.22.88-.28c.26-.08.63-.21.83-.29l.76-.29.72-.3.6-.28.71-.34.71-.37.62-.35.71-.42.79-.51.69-.47.57-.41.7-.55.71-.59.59-.52.61-.57.6-.61.49-.51c.11-.11.28-.31.39-.43l.38-.43.46-.57c.15-.19.39-.49.53-.68s.33-.45.43-.59.31-.44.46-.67.35-.54.46-.71.29-.48.4-.67.29-.51.39-.69l.41-.77.38-.8.32-.7.31-.75.26-.71c.06-.17.17-.47.24-.68s.17-.55.24-.76.15-.52.19-.68.11-.38.14-.51.09-.4.14-.6.12-.55.16-.76.11-.57.14-.79.09-.57.12-.77.07-.54.09-.75.06-.59.08-.83,0-.61.05-.81,0-.78,0-1.33,0-1.11,0-1.33,0-.57-.05-.81-.05-.61-.08-.82-.06-.56-.09-.76-.08-.57-.12-.82-.12-.64-.17-.87-.11-.54-.15-.7-.09-.4-.12-.53-.1-.39-.15-.57-.14-.49-.2-.68-.15-.5-.22-.7l-.24-.68-.26-.71-.31-.75c-.09-.19-.23-.52-.33-.72s-.29-.6-.43-.88l-.47-.9c-.12-.2-.31-.54-.44-.74s-.32-.53-.43-.71l-.37-.56-.35-.5c-.1-.14-.29-.41-.43-.59l-.55-.71-.56-.67-.53-.6-.58-.61-.63-.64-.59-.55-.52-.46-.49-.42-.4-.32-.41-.32-.47-.36-.57-.4-.67-.45-.65-.41-.64-.38-.63-.34c-.17-.1-.51-.27-.74-.39l-.73-.35-.63-.28-.66-.27-.69-.27c-.2-.08-.57-.21-.83-.29l-.88-.28-.78-.22-.79-.19-.77-.17-.72-.13-.63-.1-.62-.09-.78-.08-.83-.07-.86,0Zm0,3h1l.69,0,.55,0,.59.06.61.07.66.1.74.14.74.16.71.17.67.19.7.22.72.25.53.2.44.18.54.23.67.31c.21.1.54.26.74.37l.62.33.61.36.61.37.51.34.47.33.51.37.58.45.63.52.6.53c.16.14.5.48.77.74l.74.77.52.6c.15.16.36.43.49.58l.46.59.42.57.46.68.44.68.35.6c.11.18.27.48.36.65s.26.49.36.71.26.54.34.72.23.51.32.72.23.58.32.82.22.62.3.86.18.58.23.76.13.44.17.6.11.43.15.61.12.51.16.73.12.59.15.81.09.54.11.71.06.45.08.61.05.48.07.71,0,.56.05.76,0,.74,0,1.25,0,1.05,0,1.25,0,.54-.05.77,0,.54-.07.7-.05.44-.08.61-.06.46-.1.66-.09.53-.13.74-.11.54-.16.74-.12.48-.16.64-.09.35-.12.44-.09.31-.14.49-.16.51-.23.73l-.27.74-.26.66c-.07.17-.19.46-.27.63l-.3.65-.35.7c-.1.2-.26.49-.35.65l-.29.51-.3.5c-.1.14-.27.41-.39.59s-.3.45-.41.59-.28.4-.41.57l-.47.6-.48.58-.52.59-.75.77c-.26.26-.6.6-.76.74l-.6.53-.58.48-.59.46-.57.42-.59.4-.6.39-.49.3-.52.3-.64.34-.7.35-.66.31-.6.25-.72.29-.9.31-.78.25-.65.18-.68.16-.74.16-.69.13-.58.09-.66.09-.78.07-.71,0-1,0c-.4,0-.86,0-1.16,0l-.85,0-.62,0-.56-.06-.53-.07-.54-.09-.57-.1-.59-.11-.76-.18-.84-.23-.8-.24-.69-.24-.65-.25-.64-.25-.58-.26-.74-.36-.74-.38-.6-.34-.62-.37c-.17-.1-.47-.3-.66-.43l-.63-.43-.5-.37-.53-.41-.52-.42-.35-.31-.41-.37c-.15-.14-.49-.46-.75-.72s-.59-.6-.73-.76-.39-.43-.53-.6-.36-.42-.48-.58-.33-.42-.46-.59l-.42-.57c-.11-.14-.32-.46-.48-.71s-.4-.61-.52-.82-.3-.5-.39-.66-.24-.44-.33-.62l-.37-.73-.31-.67c-.07-.15-.17-.4-.23-.53s-.14-.34-.18-.45-.13-.34-.19-.53-.19-.51-.25-.72-.17-.53-.22-.7-.14-.47-.19-.66-.13-.52-.17-.71-.12-.54-.17-.75-.1-.55-.13-.74-.08-.49-.1-.66,0-.41-.07-.53,0-.34-.05-.48,0-.42,0-.62,0-.59,0-.86,0-.76,0-1.17,0-.8,0-1,0-.45,0-.63,0-.51.06-.72.06-.52.09-.69.07-.46.1-.66.09-.53.13-.74.12-.55.16-.74l.18-.72c0-.19.14-.49.19-.66l.22-.72.25-.73.23-.58L207,54c.07-.15.18-.41.26-.57s.19-.43.27-.59l.31-.6.32-.6c.09-.16.26-.46.39-.67s.37-.59.54-.84.37-.56.47-.7l.43-.58c.13-.18.35-.46.47-.61l.48-.56c.13-.16.36-.41.5-.57s.48-.5.74-.77l.76-.74.58-.51c.17-.14.41-.35.56-.46l.57-.45.58-.43.62-.43.62-.4.55-.33.53-.31.51-.27.57-.29.41-.2.29-.13.43-.19.61-.25.61-.23.56-.2.64-.21.69-.2.75-.19.73-.16.65-.13.6-.1.61-.08.66-.08.73-.06.72,0Zm.23,1h-1.3l-.62.05-.67.06-.64.07-.58.09-.58.1-.64.12-.68.16-.61.16-.59.17-.69.22-.65.23-.57.22-.62.26-.69.32-.59.29-.44.23-.57.32-.65.39-.64.41-.56.39-.53.39-.53.41-.53.43-.59.53c-.17.15-.53.49-.79.76s-.61.61-.74.76l-.45.51c-.11.12-.3.35-.43.51s-.36.45-.51.66l-.44.59-.36.53c-.11.17-.29.44-.39.61l-.39.65c-.11.19-.25.44-.31.56l-.24.44c-.06.13-.2.4-.29.6l-.32.7c-.08.18-.21.5-.3.72s-.21.54-.27.71l-.24.69c-.07.22-.17.56-.23.77s-.16.57-.21.79-.13.55-.17.72-.09.47-.13.64-.08.44-.1.59-.06.41-.08.58-.06.46-.08.64,0,.47-.06.66,0,.49,0,.68,0,.68,0,1.09,0,.91,0,1.09,0,.5,0,.68,0,.49.06.67.05.46.08.63.06.44.08.58.07.42.1.59.09.46.13.64.12.51.17.75.16.6.22.81.17.55.23.75.17.5.23.66.18.49.27.71.22.55.3.72l.32.7c.09.21.23.48.29.6s.17.33.24.45.2.37.31.55.28.48.39.65.29.45.41.63l.38.57.37.5.33.43.37.45.42.5.39.43.54.56.64.62.49.46.52.44.56.46.53.39.48.35.47.32.59.38.65.39.66.37.69.35.71.33c.18.09.46.21.63.28l.68.27.72.26.72.23.59.17.55.15.65.15.6.12.57.1.61.09.61.08.6.06.6.05c.2,0,.67,0,1.4,0,.89,0,1.18,0,1.51,0l.66-.06.55-.06.64-.08.59-.09.66-.13.89-.2.87-.23.83-.25c.24-.08.6-.2.79-.28l.65-.25.64-.26.6-.28.6-.29.62-.33.58-.33.6-.36.57-.37.51-.35.52-.38c.17-.12.44-.33.6-.46l.52-.43.39-.34.48-.44.64-.62.51-.54c.11-.11.28-.3.38-.42l.37-.42.39-.49c.13-.16.34-.43.47-.61s.3-.42.38-.52.22-.32.32-.48l.38-.58.39-.66c.11-.18.27-.48.36-.65l.36-.69.33-.71c.08-.19.22-.49.29-.68s.2-.49.27-.68.18-.49.25-.7.18-.55.25-.76l.2-.7c0-.17.12-.48.16-.68s.12-.53.16-.73.11-.54.14-.73.08-.49.1-.66.06-.44.08-.61,0-.45.05-.61,0-.43,0-.59,0-.68,0-1.39,0-1.19,0-1.38,0-.44,0-.6,0-.43-.05-.61-.06-.44-.08-.61-.08-.5-.12-.74-.11-.63-.16-.85-.12-.57-.17-.77-.12-.47-.16-.61l-.18-.61c-.06-.19-.16-.51-.23-.7s-.17-.5-.24-.68-.19-.49-.27-.68-.21-.5-.29-.68l-.36-.75c-.11-.22-.26-.53-.35-.69s-.24-.43-.34-.62-.29-.47-.39-.65l-.38-.58c-.1-.16-.25-.37-.32-.47s-.23-.33-.35-.49l-.4-.52c-.09-.13-.3-.38-.45-.56l-.45-.53-.45-.49c-.16-.17-.44-.46-.63-.64l-.56-.54-.47-.42c-.14-.12-.35-.31-.48-.41l-.55-.44-.6-.46-.69-.48-.72-.46-.64-.39-.62-.34c-.16-.09-.49-.26-.73-.37l-.82-.39c-.21-.1-.57-.24-.8-.34l-.74-.28-.69-.24-.75-.23-.81-.21-.79-.19-.63-.12c-.16,0-.42-.08-.6-.1s-.5-.08-.73-.1l-.8-.09-.64,0-1.28,0Zm0,.45,1.28,0,.54,0,.61.06.6.07.6.09.64.12.61.13.53.13.51.13.6.17.67.22.6.21.61.24.64.27.64.3c.2.09.5.24.68.34l.56.3.58.34.62.37.48.33c.12.07.32.21.45.3l.55.41.61.48.59.5c.17.14.43.38.59.53l.66.64c.2.2.44.46.54.57s.29.32.42.47l.46.54.41.52.41.55c.12.16.35.49.51.73l.47.73.33.57c.1.16.22.38.28.49l.34.66.38.79.29.68.27.69c.07.19.2.54.28.79s.2.61.26.82.14.49.17.64.1.4.15.58.1.49.15.7.1.52.12.69.07.41.09.55,0,.36.07.52,0,.44.06.64,0,.52.06.69,0,.68,0,1.37,0,1.16,0,1.37,0,.48-.06.69-.05.49-.06.64-.05.39-.07.53-.06.38-.09.54-.08.46-.11.65-.11.49-.15.67-.11.46-.15.62-.12.47-.18.67-.18.57-.25.8-.2.58-.28.78-.2.52-.28.72l-.29.68-.38.78c-.12.24-.28.56-.37.72l-.31.55c-.08.15-.24.4-.33.56l-.41.63c-.13.2-.31.46-.41.59l-.37.52-.42.52c-.11.14-.33.41-.49.59s-.38.45-.51.58-.38.4-.57.6l-.64.62-.53.48-.48.41-.54.44-.59.44-.77.54-.77.49-.68.4-.93.49-.88.43c-.19.08-.49.22-.69.29l-.69.28-.78.27c-.24.09-.61.2-.82.26l-.74.2-.66.16-.61.13-.6.11-.55.08-.52.07-.65.07-.68,0c-.21,0-.68,0-1.37,0s-1.16,0-1.37,0l-.69,0-.65-.07L226,86l-.54-.08-.69-.13-.85-.19-.81-.2-.73-.22-.76-.25-.68-.26-.59-.24-.58-.25-.71-.35-.61-.31-.35-.19-.35-.21-.51-.3-.61-.4-.6-.41-.54-.4-.45-.35L214.7,81l-.33-.28-.46-.41-.63-.6c-.2-.19-.49-.49-.64-.66s-.4-.43-.54-.59l-.51-.6-.48-.61-.4-.55c-.1-.13-.29-.42-.44-.64s-.35-.55-.46-.72-.26-.43-.33-.57-.2-.34-.26-.46-.22-.41-.34-.65-.29-.6-.37-.79-.22-.5-.3-.69l-.27-.67-.23-.66c-.06-.18-.16-.49-.22-.69l-.18-.59c0-.13-.09-.36-.13-.51s-.09-.39-.13-.53-.08-.41-.12-.6-.09-.48-.12-.65-.07-.41-.08-.54,0-.36-.07-.52,0-.45-.07-.65,0-.51-.05-.68,0-.68,0-1.38,0-1.17,0-1.38,0-.47.05-.68,0-.49.07-.65.05-.42.07-.57.07-.44.1-.62.1-.51.14-.72.12-.56.17-.78.13-.52.17-.65.12-.42.18-.61.16-.5.22-.67.15-.45.21-.6.16-.43.24-.62l.27-.63.29-.63.34-.68c.09-.18.23-.44.31-.58s.23-.41.36-.62.35-.57.5-.8.35-.52.44-.64l.41-.57.48-.61.41-.49.43-.49.61-.65.68-.66.48-.43.26-.24.22-.18.33-.27.53-.41.57-.42c.14-.11.44-.31.66-.45l.65-.42.55-.32.52-.3.66-.33.76-.37.69-.3.71-.27.68-.25.71-.22.61-.18.6-.15.75-.17.71-.13L226,41l.58-.08.65-.06.69-.06.4,0Zm-12.5,6.73-1.81,1.87c-1,1-1.81,1.88-1.81,1.89l2.19,2.15c1.2,1.17,2.18,2.14,2.18,2.15s-.07.11-.15.23-.21.34-.29.49-.23.43-.34.64-.24.48-.3.62-.16.38-.23.56l-.23.6-.2.64c-.05.21-.14.53-.18.72s-.1.47-.13.64-.06.41-.08.55,0,.39-.06.54,0,.47,0,.71,0,.57,0,.74,0,.43,0,.58,0,.39.05.53,0,.33.05.44,0,.31.07.47.09.43.12.6l.15.61.18.6c.05.16.14.41.2.55s.14.39.2.52l.24.55.29.56c.07.15.2.38.28.51s.19.33.26.44l.13.21-.1.1-2.18,2.14c-1.15,1.12-2.09,2.05-2.09,2.06l1.81,1.88,1.81,1.87,1.2-1.21,2.2-2.21,1-1,.16.11.4.26.52.3.6.31c.17.09.45.21.61.28l.59.24.62.21.59.17.53.12.58.11.58.09.61.06.84,0a8.51,8.51,0,0,0,.89,0l.65,0,.6-.07.54-.08.54-.11.64-.16.59-.18.52-.19.44-.18.51-.23.53-.27c.12-.07.33-.18.45-.26l.52-.32.29-.19,2.2,2.21,2.2,2.21,1.82-1.88c1-1,1.81-1.88,1.81-1.89l-2.16-2.13c-1.2-1.16-2.18-2.13-2.19-2.14s0-.07.1-.2.18-.28.26-.42l.31-.56.32-.66c.09-.19.22-.5.3-.69s.19-.5.25-.69.16-.49.21-.67.12-.46.16-.63.08-.41.11-.54l.07-.46c0-.12,0-.37.07-.55s0-.49.05-.69a9.14,9.14,0,0,0,0-.93c0-.32,0-.71,0-.88s-.05-.45-.07-.63-.07-.46-.1-.64-.09-.44-.13-.61-.11-.43-.15-.59-.13-.45-.19-.63-.17-.46-.23-.63-.17-.42-.23-.54-.15-.32-.2-.44l-.24-.47-.24-.44-.26-.43a1.75,1.75,0,0,1-.15-.27s1-1,2.18-2.14l2.17-2.14s-.81-.86-1.81-1.89l-1.81-1.87-2.21,2.2-2.2,2.2-.21-.14-.4-.25-.38-.23-.44-.24-.54-.26-.63-.27-.65-.23c-.19-.07-.46-.15-.61-.19l-.56-.14-.62-.13-.6-.09-.54-.06-.68,0a8.32,8.32,0,0,0-.87,0l-.7,0-.55.06-.6.07-.57.1-.63.15-.63.17-.5.17-.36.13-.45.18-.62.29-.51.27-.44.25-.46.29-.19.13-2.2-2.2Zm12,7.29.55,0,.42,0,.44.07.5.11c.15,0,.39.1.53.15l.46.17c.12,0,.32.13.45.2a5.16,5.16,0,0,1,.47.24l.46.28.39.28c.09.06.25.2.37.3l.54.49c.17.17.39.4.48.51l.34.43c.1.13.23.31.29.41s.17.26.23.37a3.85,3.85,0,0,1,.27.51c.09.17.2.42.25.55s.13.34.17.48.11.36.15.51.08.37.1.5.06.37.08.54a13,13,0,0,1,0,2c0,.17,0,.42-.08.54s-.07.37-.11.54-.12.43-.17.58-.13.37-.18.49l-.21.45c-.06.13-.16.31-.22.43l-.25.39-.27.39-.32.41c-.1.12-.32.36-.51.54s-.42.41-.53.5l-.39.32-.38.26-.32.21-.35.2-.41.21-.39.16-.47.17-.5.14-.42.09-.42.07-.47.06-.73,0-.72,0-.41,0-.43-.07-.51-.11-.48-.13-.48-.18-.53-.23-.49-.26-.41-.26c-.1-.06-.26-.18-.37-.26l-.41-.33c-.12-.1-.36-.33-.54-.5s-.4-.42-.5-.53-.24-.29-.31-.39l-.27-.38c-.07-.11-.18-.28-.24-.39l-.25-.45-.23-.49c0-.13-.13-.35-.18-.5s-.12-.37-.15-.49l-.11-.48a4.5,4.5,0,0,1-.08-.51c0-.13-.05-.35-.06-.48s0-.45,0-.7,0-.57,0-.7,0-.32.05-.43a4.23,4.23,0,0,1,.07-.43,4.64,4.64,0,0,1,.11-.51c0-.15.11-.41.16-.57s.15-.4.2-.53.17-.38.26-.55.22-.41.3-.54a5.09,5.09,0,0,1,.29-.42c.07-.11.2-.28.28-.38l.35-.41.4-.42.4-.36.45-.36.45-.31.37-.23.39-.21.41-.19.41-.17.47-.15.45-.11.44-.09.49-.07.51,0h.61Z"/></g></svg>