<?xml version="1.0" encoding="UTF-8" standalone="no"?>
<svg
   xmlns:dc="http://purl.org/dc/elements/1.1/"
   xmlns:cc="http://creativecommons.org/ns#"
   xmlns:rdf="http://www.w3.org/1999/02/22-rdf-syntax-ns#"
   xmlns:svg="http://www.w3.org/2000/svg"
   xmlns="http://www.w3.org/2000/svg"
   id="svg14"
   version="1.1"
   height="120"
   width="560">
  <metadata
     id="metadata20">
    <rdf:RDF>
      <cc:Work
         rdf:about="">
        <dc:format>image/svg+xml</dc:format>
        <dc:type
           rdf:resource="http://purl.org/dc/dcmitype/StillImage" />
      </cc:Work>
    </rdf:RDF>
  </metadata>
  <defs
     id="defs18" />
  <g
     id="g5">
    <title
       id="title2">background</title>
    <path
       id="canvas_background"
       d="M -1,-1 H 561 V 121 H -1 Z"
       style="fill:none" />
  </g>
  <g
     id="g12">
    <title
       id="title7">Layer 1</title>
    <path
       style="fill:#8a3eb0;stroke-width:0.44248"
       id="icon_container"
       d="m 458.1331,338.64898 0.002,0.002 c -0.32548,-0.005 -0.62639,-0.006 -0.66793,0 -0.0416,0.006 -0.21729,0.0237 -0.39061,0.0391 -0.17446,0.0152 -0.47461,0.0549 -0.66989,0.0879 -0.19485,0.0333 -0.5298,0.1043 -0.74412,0.1582 -0.21431,0.0539 -0.52062,0.13976 -0.67966,0.1914 -0.15859,0.0514 -0.46293,0.16339 -0.6777,0.24804 -0.21478,0.0849 -0.59601,0.25656 -0.84567,0.38279 -0.2492,0.12619 -1.0018,0.5473 -1.67373,0.93552 -0.6719,0.38796 -1.65315,0.95322 -2.17959,1.25583 -0.5265,0.30255 -1.08851,0.62579 -1.24794,0.71871 -0.15923,0.0927 -0.64074,0.37053 -1.07029,0.61716 -0.42953,0.24639 -1.17709,0.67761 -1.66205,0.957 -0.48496,0.27938 -1.46125,0.83942 -2.16791,1.246 -0.70668,0.40661 -1.60226,0.92273 -1.99015,1.14647 -0.38796,0.22372 -0.94804,0.54741 -1.246,0.71872 -0.29778,0.17132 -0.86005,0.49498 -1.24805,0.71872 -0.38797,0.22372 -1.28348,0.73792 -1.99015,1.14453 -0.70666,0.4066 -1.60225,0.92273 -1.99014,1.14647 -0.38796,0.22371 -0.94803,0.5474 -1.246,0.71872 -0.29778,0.1713 -0.86005,0.49497 -1.24806,0.71872 -0.38796,0.22371 -1.13551,0.65418 -1.66205,0.95699 -0.52651,0.30281 -1.50088,0.86312 -2.16597,1.246 -0.66507,0.38293 -1.78739,1.03055 -2.49405,1.43749 -0.70666,0.40661 -1.60225,0.92078 -1.99014,1.14453 -0.38797,0.22371 -1.01724,0.58716 -1.39838,0.80661 -0.38092,0.21941 -0.76057,0.44456 -0.84371,0.49998 -0.0831,0.0557 -0.27726,0.19377 -0.42967,0.30663 -0.15242,0.11286 -0.38384,0.29443 -0.51561,0.40427 -0.1315,0.10985 -0.4187,0.37491 -0.63865,0.58983 -0.21967,0.21487 -0.49866,0.50543 -0.61911,0.6445 -0.12042,0.13905 -0.30388,0.36583 -0.40818,0.50388 -0.10405,0.13806 -0.24964,0.34227 -0.3242,0.45311 -0.0745,0.11084 -0.21341,0.32792 -0.30664,0.48435 -0.093,0.15669 -0.24207,0.43427 -0.33201,0.61716 -0.0899,0.18314 -0.22002,0.47505 -0.28905,0.64841 -0.0688,0.17307 -0.16402,0.43935 -0.21288,0.59178 -0.0491,0.15242 -0.1247,0.41378 -0.16602,0.58006 -0.0416,0.16627 -0.0984,0.42076 -0.12695,0.56637 -0.0285,0.14536 -0.0695,0.4001 -0.0898,0.56639 -0.0207,0.16627 -0.0482,0.45614 -0.0625,0.64255 -0.0181,0.22927 -0.0273,6.16571 -0.0273,18.49139 0,12.32569 0.009,18.26407 0.0273,18.49344 0.0143,0.18643 0.0419,0.47436 0.0625,0.64061 0.0204,0.16625 0.0614,0.42077 0.0898,0.56637 0.0282,0.14538 0.0912,0.42319 0.14063,0.61717 0.0494,0.19399 0.13779,0.49463 0.19725,0.66794 0.0592,0.17306 0.16913,0.45557 0.24217,0.62888 0.0733,0.17307 0.19963,0.44597 0.28125,0.60545 0.0819,0.1592 0.20679,0.38597 0.27734,0.50388 0.0702,0.11764 0.19613,0.31668 0.27927,0.44139 0.0829,0.1247 0.23553,0.33848 0.33984,0.47653 0.10429,0.13806 0.28776,0.36483 0.40818,0.50389 0.12043,0.13907 0.39942,0.4296 0.61911,0.64451 0.21993,0.21489 0.50712,0.47994 0.63865,0.58981 0.13177,0.10985 0.36318,0.29142 0.51561,0.40429 0.15241,0.11286 0.34654,0.25095 0.42967,0.30663 0.0832,0.0554 0.46279,0.28055 0.84371,0.49997 0.38117,0.21944 1.01042,0.58293 1.39838,0.80661 0.38796,0.22371 1.28348,0.73982 1.99014,1.14647 0.70665,0.40684 1.82897,1.05257 2.49405,1.43544 0.66506,0.38293 1.63943,0.94325 2.16597,1.24601 0.5265,0.30281 1.27406,0.73328 1.66205,0.95699 0.38797,0.22371 0.95023,0.54738 1.24806,0.71871 0.29802,0.17131 0.85809,0.49497 1.246,0.71873 0.38797,0.2237 1.28348,0.73987 1.99014,1.14647 0.70666,0.4066 1.60215,0.92078 1.99015,1.14452 0.38796,0.2237 0.95022,0.54741 1.24805,0.71873 0.29802,0.17129 0.85809,0.49497 1.246,0.71871 0.38796,0.2237 1.28348,0.73982 1.99015,1.14647 0.70665,0.4066 1.68294,0.9686 2.16791,1.24795 0.48495,0.27939 1.23248,0.70865 1.66205,0.95504 0.42955,0.24663 0.91105,0.52446 1.07029,0.61717 0.15945,0.093 0.72148,0.41618 1.24794,0.71871 0.52652,0.30258 1.50774,0.86782 2.17959,1.25584 0.67213,0.38821 1.42438,0.80926 1.67373,0.9355 0.24941,0.12621 0.63103,0.29985 0.84567,0.38475 0.21488,0.0847 0.51898,0.19469 0.6777,0.24609 0.15872,0.0516 0.46453,0.13918 0.67966,0.19334 0.21515,0.0542 0.55647,0.12496 0.75778,0.15821 0.20104,0.0333 0.49505,0.0759 0.65426,0.0937 0.16831,0.0191 0.56485,0.0317 0.94529,0.0312 0.46633,-9.2e-4 0.76146,-0.0132 1.02144,-0.045 0.20104,-0.0247 0.45555,-0.0614 0.56638,-0.082 0.11085,-0.0209 0.35828,-0.0786 0.55076,-0.12694 0.19247,-0.0481 0.49309,-0.13559 0.66794,-0.1953 0.17484,-0.0597 0.43174,-0.15759 0.57028,-0.21679 0.13856,-0.059 0.34717,-0.15589 0.46483,-0.21483 0.11789,-0.0592 0.31203,-0.16364 0.42967,-0.23242 0.1179,-0.0688 0.31474,-0.18732 0.43944,-0.26367 0.1247,-0.0763 0.57823,-0.34097 1.00777,-0.58786 0.42952,-0.24663 0.99154,-0.56913 1.24795,-0.71676 0.25646,-0.14763 0.81185,-0.46727 1.23433,-0.7109 0.42273,-0.24336 1.31799,-0.7595 1.99014,-1.14648 0.67212,-0.38695 1.65315,-0.95127 2.17958,-1.25388 0.52651,-0.30256 1.08688,-0.6243 1.24601,-0.71677 0.15922,-0.0925 0.49473,-0.28658 0.74411,-0.42967 0.24941,-0.1431 0.58294,-0.33526 0.74216,-0.42772 0.15921,-0.0925 0.7215,-0.41614 1.24805,-0.71871 0.52651,-0.30256 1.50088,-0.86313 2.16597,-1.24601 0.66508,-0.38293 1.78739,-1.03055 2.49405,-1.43749 0.70666,-0.40661 1.60215,-0.92078 1.99015,-1.14452 0.38796,-0.22396 1.13551,-0.65445 1.66205,-0.957 0.5265,-0.30255 1.10029,-0.63385 1.27335,-0.73434 0.17332,-0.10056 0.99008,-0.57053 1.81432,-1.04489 0.82455,-0.47441 2.12746,-1.22501 2.89638,-1.66789 0.76915,-0.44264 1.97018,-1.13449 2.66978,-1.53703 0.69986,-0.40283 1.55586,-0.89561 1.90228,-1.09568 0.34639,-0.20029 0.77615,-0.45875 0.95503,-0.57615 0.17888,-0.1174 0.43878,-0.30067 0.5781,-0.40623 0.13932,-0.10556 0.36679,-0.28998 0.50584,-0.41015 0.13907,-0.12015 0.39037,-0.35991 0.55663,-0.53122 0.16627,-0.17156 0.39564,-0.42796 0.50974,-0.57029 0.11413,-0.14234 0.31617,-0.42224 0.4492,-0.62302 0.13275,-0.20079 0.32423,-0.52729 0.42576,-0.72458 0.10179,-0.19725 0.2434,-0.50072 0.31444,-0.6738 0.0711,-0.17332 0.18469,-0.49042 0.25194,-0.70505 0.067,-0.21489 0.15243,-0.52441 0.18945,-0.68942 0.0368,-0.16501 0.0876,-0.41485 0.11328,-0.55467 0.0257,-0.13983 0.064,-0.41341 0.0859,-0.6074 0.0216,-0.19396 0.0506,-0.51795 0.0644,-0.71871 0.0164,-0.23857 0.0254,-6.68304 0.0254,-18.59072 0,-11.90708 -0.009,-18.35418 -0.0254,-18.59277 -0.0138,-0.20104 -0.0428,-0.5228 -0.0644,-0.71676 -0.0219,-0.194 -0.0602,-0.46757 -0.0859,-0.60741 -0.0257,-0.13981 -0.0765,-0.38964 -0.11328,-0.55466 -0.0371,-0.165 -0.12244,-0.4748 -0.18945,-0.68943 -0.0673,-0.21489 -0.1809,-0.53391 -0.25194,-0.707 -0.0711,-0.17332 -0.2136,-0.47671 -0.31639,-0.67575 -0.10279,-0.19927 -0.30485,-0.53943 -0.44919,-0.75583 -0.14436,-0.21666 -0.38051,-0.53591 -0.52538,-0.70895 -0.14486,-0.17332 -0.41682,-0.46363 -0.60349,-0.6445 -0.18643,-0.18115 -0.48493,-0.44504 -0.66404,-0.58787 -0.17886,-0.14309 -0.50185,-0.37715 -0.71676,-0.51952 -0.21465,-0.14233 -0.67311,-0.42324 -1.01949,-0.62301 -0.3464,-0.20004 -1.20238,-0.69286 -1.90228,-1.09568 -0.69959,-0.40257 -1.94683,-1.11882 -2.77136,-1.59365 -0.82428,-0.47462 -2.12726,-1.22521 -2.89638,-1.66789 -0.76887,-0.44239 -1.53948,-0.88775 -1.71285,-0.98825 -0.17307,-0.10056 -0.74688,-0.42983 -1.27334,-0.73239 -0.52651,-0.30256 -1.27406,-0.73307 -1.66206,-0.95699 -0.38796,-0.22371 -1.28348,-0.73982 -1.99014,-1.14647 -0.70667,-0.40685 -1.82897,-1.05257 -2.49405,-1.43544 -0.66506,-0.38294 -1.63943,-0.94346 -2.16597,-1.246 -0.52651,-0.30256 -1.08882,-0.62624 -1.24805,-0.71872 -0.15922,-0.0925 -0.49276,-0.28463 -0.74216,-0.42772 -0.2494,-0.1431 -0.58488,-0.33721 -0.74411,-0.42967 -0.15921,-0.0925 -0.71953,-0.41614 -1.24601,-0.71873 -0.5265,-0.30256 -1.50743,-0.8649 -2.17958,-1.25194 -0.67214,-0.38696 -1.56744,-0.90308 -1.99015,-1.14647 -0.42248,-0.24361 -0.97788,-0.56328 -1.23433,-0.7109 -0.25646,-0.14764 -0.81845,-0.47187 -1.24794,-0.71873 -0.42954,-0.24714 -0.86468,-0.49949 -0.96871,-0.56247 -0.10379,-0.0627 -0.29086,-0.17542 -0.41405,-0.24999 -0.12344,-0.0746 -0.33181,-0.18909 -0.46483,-0.25586 -0.13327,-0.0668 -0.35556,-0.1715 -0.49412,-0.23045 -0.13855,-0.0592 -0.39546,-0.15512 -0.57028,-0.21483 -0.17484,-0.0597 -0.47546,-0.14889 -0.66794,-0.19727 -0.19247,-0.0481 -0.44653,-0.10552 -0.56443,-0.12694 -0.11767,-0.0216 -0.36087,-0.0564 -0.541,-0.0781 -0.18012,-0.0217 -0.59414,-0.0438 -0.91988,-0.0487 z"
       transform="translate(-228,-322)" />
    <path
       style="fill:#fcfcfc;stroke-width:0;stroke-miterlimit:2"
       id="path1142977"
       d="m 701.22047,340.92226 c -1.36642,-0.0245 -2.66014,0.34328 -3.81429,0.99018 -3.94118,2.09255 -4.31033,5.78704 -4.31033,8.86488 v 68.21785 c 0,4.43382 3.6947,8.12862 8.12852,8.12862 4.55577,0 8.24965,-3.6947 8.24965,-8.12862 v -48.76185 l 42.72845,52.33357 c 1.35434,1.59989 2.3383,2.70991 4.18539,3.6952 3.44689,1.7235 6.52514,0.61471 8.49572,-0.86324 2.46323,-2.09254 3.07999,-4.55608 3.07999,-7.38836 v -44.57473 c 0,-4.43381 -3.69418,-8.12851 -8.2516,-8.12851 -4.43218,0 -8.12667,3.69388 -8.12667,8.24965 v 24.38144 l -43.22099,-53.07187 c -2.38602,-2.77013 -4.86687,-3.90431 -7.14425,-3.94517 z m -392.42753,0.006 c -4.55568,0 -8.12667,3.69408 -8.12667,8.12667 0,4.55567 3.57089,8.24771 8.12667,8.24771 4.43248,0 8.12656,-3.69204 8.12656,-8.24771 0,-4.43249 -3.69408,-8.12667 -8.12656,-8.12667 z m 36.41446,0 c -4.43218,0 -8.12667,3.69439 -8.12667,8.12667 0,4.55578 3.69439,8.24965 8.12667,8.24965 h 17.85856 v 61.68576 c 0,4.43382 3.5709,8.12862 8.12667,8.12862 4.55742,0 8.12851,-3.6947 8.12851,-8.12862 v -69.94022 c 0,-4.43218 -3.20204,-8.12667 -8.12851,-8.12667 z m 51.96288,0 c -4.55577,0 -8.24965,3.69439 -8.24965,8.12667 0,4.55578 3.69388,8.24965 8.24965,8.24965 4.43382,0 8.12862,-3.69387 8.12862,-8.24965 0,-4.43218 -3.6947,-8.12667 -8.12862,-8.12667 z m 133.38625,0 c -4.43382,0 -8.12667,3.69439 -8.12667,8.12667 v 69.92896 c 0,4.43382 3.69275,8.12862 8.12667,8.12862 4.55578,0 8.24965,-3.6947 8.24965,-8.12862 v -24.74905 l 28.69248,30.4128 c 3.20144,3.20143 8.37233,3.32585 11.57325,0.24803 3.20144,-3.20307 3.32585,-8.37263 0.24805,-11.5753 l -30.53773,-31.03232 10.95884,-10.09531 c 3.20134,-3.20133 3.20134,-8.37427 0,-11.57529 -3.20143,-3.20144 -8.37427,-3.07835 -11.57529,0.12304 l -9.35895,9.97417 v -21.67091 c 0,-4.43218 -3.69388,-8.12667 -8.24965,-8.12667 z m 40.51354,0 c -4.43392,0 -8.12862,3.69449 -8.12862,8.12667 0,4.55578 3.6947,8.24965 8.12862,8.24965 4.55577,0 8.24965,-3.69387 8.24965,-8.24965 0,-4.43218 -3.69388,-8.12667 -8.24965,-8.12667 z m 44.40269,0 c -4.43218,0 -8.12667,3.69439 -8.12667,8.12667 v 69.92896 c 0,4.43382 3.69439,8.12862 8.12667,8.12862 h 41.86726 c 4.55578,0 8.12463,-3.6947 8.12463,-8.12862 0,-4.55577 -3.56895,-8.24965 -8.12463,-8.24965 h -33.61587 v -18.96243 h 28.56755 c 4.55578,0 8.12667,-3.32534 8.12667,-7.75752 0,-4.55577 -3.57089,-7.8805 -8.12667,-7.8805 h -28.56755 v -18.84057 h 8.74179 c 4.43218,0 8.12667,-3.69388 8.12667,-8.24966 0,-4.43218 -3.69439,-8.12667 -8.12667,-8.12667 z m 41.49862,0 c -4.55577,0 -8.24965,3.69439 -8.24965,8.12667 0,4.55578 3.69388,8.24965 8.24965,8.24965 4.43218,0 8.12463,-3.69387 8.12463,-8.24965 0,-4.43218 -3.69245,-8.12667 -8.12463,-8.12667 z m 102.86081,0 c -4.55578,0 -8.24965,3.57089 -8.24965,8.12667 0,4.55578 3.69387,8.12667 8.24965,8.12667 4.43392,0 8.12861,-3.57089 8.12861,-8.12667 0,-4.55578 -3.69469,-8.12667 -8.12861,-8.12667 z m -495.52386,0.0448 c -1.55833,-0.0353 -3.13416,0.3851 -4.51933,1.30857 -3.81696,2.33943 -4.92523,7.38775 -2.5858,11.20461 l 19.57683,30.53568 -19.57683,30.53364 c -2.33933,3.81685 -1.23105,8.86517 2.5858,11.32748 3.81686,2.33943 8.86518,1.233 11.20461,-2.58386 l 15.51258,-24.13363 15.39174,24.13363 c 2.46252,3.81696 7.51074,4.92329 11.32749,2.58386 3.69378,-2.46251 4.80215,-7.51073 2.46282,-11.32748 l -19.57683,-30.53364 6.27907,-9.85119 c 2.46251,-3.81696 1.35414,-8.86517 -2.46282,-11.2046 -3.81686,-2.46252 -8.86529,-1.35414 -11.20461,2.46282 l -2.21676,3.44904 -15.51258,-24.13364 c -1.53907,-2.38551 -4.08811,-3.71241 -6.68528,-3.77129 z"
       stroke-miterlimit="2"
       transform="translate(-229,-324)" />
    <path
       style="fill:#fcfcfc;stroke-width:0.29499"
       id="icon"
       d="m 457.1603,358.26882 0.002,0.006 c -0.31859,0.001 -0.73467,0.008 -0.92379,0.0156 -0.18928,0.007 -0.48001,0.021 -0.64645,0.0312 -0.16645,0.0102 -0.43723,0.031 -0.6035,0.0448 -0.16626,0.0139 -0.45062,0.0401 -0.63083,0.0586 -0.18004,0.0186 -0.52346,0.0596 -0.76364,0.0919 -0.24018,0.032 -0.61813,0.09 -0.83981,0.12695 -0.2217,0.0372 -0.60749,0.10816 -0.85739,0.15819 -0.25008,0.0499 -0.59023,0.12025 -0.75582,0.1582 -0.16578,0.0378 -0.46338,0.11121 -0.66208,0.1621 -0.19851,0.051 -0.50922,0.13449 -0.68944,0.18554 -0.18003,0.0511 -0.51882,0.1535 -0.75191,0.22655 -0.23295,0.0732 -0.60582,0.19806 -0.83005,0.27734 -0.22421,0.0795 -0.57411,0.20815 -0.7773,0.28709 -0.20322,0.0788 -0.53502,0.21334 -0.73826,0.29882 -0.20321,0.0855 -0.51721,0.22304 -0.69724,0.30468 -0.18005,0.0814 -0.57271,0.27025 -0.87301,0.4199 -0.30012,0.14981 -0.69802,0.35411 -0.88278,0.45505 -0.18473,0.10097 -0.49543,0.27741 -0.68942,0.39062 -0.19398,0.11337 -0.49111,0.29178 -0.66208,0.39842 -0.1708,0.10664 -0.46172,0.29387 -0.64646,0.416 -0.18475,0.12209 -0.48383,0.32773 -0.66404,0.45506 -0.18003,0.12747 -0.47928,0.34366 -0.66402,0.4824 -0.18476,0.13889 -0.50183,0.38571 -0.70506,0.5488 -0.20321,0.16307 -0.50747,0.41593 -0.67575,0.56052 -0.16828,0.14477 -0.4363,0.38206 -0.59568,0.52733 -0.15938,0.14527 -0.43367,0.40341 -0.60935,0.5742 -0.17584,0.1708 -0.45902,0.45595 -0.63083,0.63278 -0.17181,0.17668 -0.43152,0.45064 -0.57615,0.60935 -0.14461,0.15888 -0.38093,0.42578 -0.52537,0.59372 -0.14444,0.16795 -0.40857,0.48727 -0.58591,0.70896 -0.17736,0.2217 -0.42418,0.53878 -0.54881,0.70505 -0.12462,0.16626 -0.32971,0.45062 -0.45702,0.63084 -0.12712,0.18003 -0.331,0.47734 -0.4531,0.66208 -0.12227,0.18474 -0.30952,0.47548 -0.416,0.64645 -0.10648,0.1708 -0.287,0.47006 -0.40037,0.66403 -0.11319,0.194 -0.28786,0.50468 -0.38865,0.68943 -0.10076,0.18474 -0.28441,0.53552 -0.40819,0.78121 -0.1236,0.24556 -0.29914,0.60566 -0.38866,0.7988 -0.0894,0.19315 -0.22935,0.5091 -0.31248,0.7031 -0.0833,0.19399 -0.22292,0.53087 -0.30858,0.74801 -0.0857,0.21716 -0.20575,0.53409 -0.26757,0.70505 -0.062,0.17098 -0.16863,0.47643 -0.23631,0.67967 -0.0677,0.2032 -0.17129,0.53696 -0.23243,0.7402 -0.0613,0.20322 -0.15795,0.535 -0.21288,0.73825 -0.0548,0.20322 -0.14032,0.54338 -0.19138,0.75583 -0.0512,0.21245 -0.13372,0.58729 -0.1836,0.83199 -0.0501,0.24471 -0.11781,0.59648 -0.15038,0.78122 -0.0326,0.18474 -0.0782,0.45897 -0.10158,0.61131 -0.0232,0.15232 -0.0611,0.42212 -0.084,0.59763 -0.0227,0.1755 -0.0572,0.46623 -0.0762,0.64646 -0.0188,0.18003 -0.045,0.46262 -0.0586,0.62887 -0.0137,0.16627 -0.0333,0.4359 -0.043,0.59763 -0.0102,0.16157 -0.0243,0.48194 -0.0332,0.71286 -0.009,0.23094 -0.0156,0.655 -0.0156,0.94138 0,0.28635 0.007,0.71157 0.0156,0.94722 0.009,0.23547 0.0236,0.56089 0.0332,0.72262 0.0102,0.16157 0.0292,0.43138 0.043,0.59763 0.0136,0.16628 0.0399,0.44868 0.0586,0.62889 0.0188,0.18004 0.0533,0.47095 0.0762,0.64645 0.0227,0.17551 0.0639,0.46625 0.0918,0.64646 0.0276,0.18005 0.0688,0.43316 0.0918,0.56248 0.023,0.12932 0.077,0.40862 0.11914,0.62106 0.0422,0.21246 0.11447,0.54933 0.16016,0.74802 0.0455,0.19853 0.12141,0.50921 0.16795,0.68942 0.0464,0.18005 0.12471,0.47406 0.17578,0.65428 0.051,0.18005 0.15349,0.51882 0.22655,0.75192 0.0732,0.23295 0.19807,0.60582 0.27732,0.83004 0.0795,0.22421 0.20817,0.57408 0.2871,0.77731 0.0788,0.20321 0.21333,0.53698 0.29883,0.74021 0.0855,0.20321 0.22304,0.51721 0.30467,0.69723 0.0814,0.18005 0.27026,0.57273 0.41991,0.87301 0.14964,0.30013 0.35255,0.69297 0.45114,0.87301 0.0987,0.18004 0.27345,0.48784 0.38866,0.68552 0.11521,0.19751 0.29732,0.49988 0.40429,0.67185 0.10715,0.17181 0.29567,0.46368 0.41794,0.64842 0.12211,0.18473 0.32578,0.48381 0.4531,0.66403 0.12749,0.18004 0.34548,0.47929 0.48436,0.66403 0.13874,0.18475 0.38574,0.50182 0.54882,0.70505 0.16323,0.20322 0.41397,0.50747 0.55856,0.67575 0.14462,0.16829 0.38205,0.43613 0.52732,0.59568 0.14528,0.15939 0.40139,0.43056 0.56834,0.60154 0.16694,0.17115 0.4379,0.44178 0.60349,0.60349 0.1656,0.16158 0.3963,0.38145 0.5117,0.48826 0.11554,0.10682 0.31284,0.28414 0.43748,0.39451 0.12478,0.11034 0.32015,0.28114 0.43554,0.3789 0.11554,0.0979 0.36538,0.30305 0.55465,0.45505 0.18946,0.15183 0.49492,0.38862 0.67967,0.52732 0.18475,0.1389 0.48399,0.3569 0.66402,0.48437 0.1802,0.12731 0.4793,0.33295 0.66404,0.45506 0.18475,0.12226 0.47659,0.30885 0.64841,0.41599 0.17198,0.10699 0.47433,0.28908 0.67186,0.40429 0.19766,0.1152 0.50547,0.29038 0.6855,0.38865 0.18004,0.0981 0.52872,0.27888 0.77341,0.40231 0.24487,0.12346 0.60222,0.29736 0.79489,0.38672 0.19247,0.0894 0.50955,0.23061 0.70505,0.31444 0.19533,0.0838 0.533,0.22292 0.74997,0.30858 0.21716,0.0857 0.53098,0.20353 0.69724,0.26366 0.16627,0.06 0.4508,0.16024 0.63083,0.2207 0.18005,0.0606 0.43947,0.14337 0.57615,0.18553 0.13688,0.042 0.40471,0.12103 0.59567,0.17577 0.19113,0.0546 0.4957,0.13725 0.67576,0.18359 0.18021,0.0465 0.47734,0.11961 0.66208,0.16211 0.18474,0.0425 0.51852,0.11531 0.74021,0.16015 0.22169,0.0451 0.60601,0.11425 0.85544,0.15624 0.24939,0.042 0.59282,0.0957 0.76364,0.11913 0.17096,0.0236 0.44058,0.0577 0.59761,0.0762 0.15704,0.0181 0.40182,0.0448 0.54491,0.0586 0.14326,0.0139 0.41092,0.0368 0.59568,0.0508 0.18474,0.0138 0.50706,0.0333 0.71481,0.0448 0.21986,0.0124 0.77391,0.0215 1.32608,0.0215 0.55523,0 1.10694,-0.0102 1.32802,-0.0215 0.20793,-0.0118 0.52812,-0.0315 0.71287,-0.0448 0.18475,-0.0136 0.45764,-0.0363 0.60544,-0.0508 0.1478,-0.0143 0.42399,-0.0438 0.61325,-0.0664 0.18947,-0.0225 0.42572,-0.0541 0.52732,-0.0684 0.10158,-0.0143 0.3284,-0.0486 0.50389,-0.0762 0.17552,-0.0278 0.4831,-0.0809 0.68162,-0.11718 0.19851,-0.0365 0.46964,-0.0891 0.60349,-0.11718 0.13401,-0.0281 0.40692,-0.0869 0.60544,-0.13281 0.19852,-0.0459 0.53558,-0.12961 0.74802,-0.18553 0.21245,-0.0558 0.56733,-0.15553 0.78904,-0.2207 0.22167,-0.065 0.61437,-0.18742 0.873,-0.27342 0.25864,-0.086 0.63409,-0.21694 0.83396,-0.29101 0.19968,-0.0742 0.53983,-0.20759 0.75582,-0.29491 0.21581,-0.0874 0.53864,-0.22201 0.71873,-0.30076 0.1802,-0.0788 0.45309,-0.20222 0.60542,-0.27343 0.15235,-0.0712 0.4696,-0.22711 0.70506,-0.34569 0.23565,-0.11857 0.55777,-0.28432 0.71481,-0.36912 0.15704,-0.0847 0.43651,-0.2415 0.62107,-0.34765 0.18475,-0.10631 0.50183,-0.29479 0.70505,-0.4199 0.20339,-0.12513 0.56134,-0.35661 0.79684,-0.51365 0.23564,-0.15721 0.54635,-0.36907 0.68943,-0.47069 0.14327,-0.10158 0.39621,-0.28569 0.56248,-0.41014 0.16626,-0.12445 0.48335,-0.3711 0.70504,-0.5488 0.2217,-0.17769 0.54024,-0.44087 0.70701,-0.58397 0.16678,-0.14292 0.43461,-0.38069 0.59568,-0.52731 0.16122,-0.14662 0.43252,-0.40337 0.60348,-0.57029 0.17081,-0.16694 0.44388,-0.4379 0.60544,-0.6035 0.16175,-0.1656 0.38161,-0.39631 0.48827,-0.5117 0.10665,-0.11555 0.28041,-0.30764 0.3867,-0.42771 0.10631,-0.12009 0.27695,-0.3174 0.37889,-0.43749 0.10179,-0.12008 0.30893,-0.37319 0.46092,-0.56247 0.15201,-0.18945 0.39057,-0.49492 0.52927,-0.67966 0.13856,-0.18475 0.33571,-0.45259 0.43748,-0.59568 0.10179,-0.14327 0.30532,-0.44234 0.45311,-0.66402 0.14779,-0.22171 0.35572,-0.54498 0.46288,-0.71678 0.10713,-0.17198 0.28905,-0.47433 0.40427,-0.67185 0.11521,-0.19767 0.29042,-0.50544 0.38866,-0.68552 0.0983,-0.18004 0.27905,-0.52869 0.40232,-0.7734 0.12329,-0.24487 0.29736,-0.60223 0.38671,-0.79488 0.0894,-0.19247 0.23062,-0.50956 0.31444,-0.70506 0.0838,-0.19532 0.22294,-0.533 0.30859,-0.74996 0.0856,-0.21717 0.20576,-0.53428 0.26756,-0.70506 0.0618,-0.17097 0.16847,-0.47642 0.23632,-0.67966 0.0679,-0.20322 0.17556,-0.54859 0.24023,-0.76558 0.0647,-0.21717 0.15168,-0.51952 0.19335,-0.67186 0.0417,-0.15249 0.1023,-0.38237 0.13475,-0.51169 0.0325,-0.12932 0.0967,-0.40221 0.14257,-0.60544 0.0459,-0.20321 0.11816,-0.54338 0.16015,-0.75584 0.042,-0.21246 0.10562,-0.56733 0.14259,-0.78902 0.037,-0.2217 0.0915,-0.56823 0.11913,-0.77146 0.0275,-0.20321 0.0684,-0.54338 0.0917,-0.75583 0.0231,-0.21246 0.0577,-0.584 0.0762,-0.82418 0.0185,-0.24017 0.043,-0.60666 0.0547,-0.81442 0.0121,-0.21867 0.0215,-0.77693 0.0215,-1.32608 0,-0.5492 -0.0102,-1.10746 -0.0215,-1.32608 -0.0116,-0.20792 -0.0362,-0.5762 -0.0547,-0.81637 -0.0183,-0.24017 -0.0528,-0.60979 -0.0762,-0.82224 -0.0234,-0.21244 -0.0643,-0.55259 -0.0917,-0.75583 -0.0276,-0.20321 -0.085,-0.5728 -0.12696,-0.82222 -0.042,-0.24942 -0.1143,-0.63898 -0.16014,-0.86521 -0.0459,-0.22639 -0.11327,-0.54347 -0.15039,-0.70503 -0.0371,-0.16176 -0.0946,-0.39996 -0.12695,-0.52929 -0.0324,-0.12932 -0.0996,-0.3875 -0.15039,-0.57224 -0.0507,-0.18474 -0.13759,-0.4871 -0.19335,-0.67185 -0.0556,-0.18474 -0.15691,-0.50182 -0.22459,-0.70504 -0.0677,-0.20321 -0.17451,-0.50869 -0.23632,-0.67967 -0.0618,-0.17097 -0.1819,-0.48789 -0.26756,-0.70505 -0.0856,-0.21715 -0.22479,-0.55445 -0.30859,-0.74996 -0.0838,-0.19533 -0.22871,-0.52076 -0.32225,-0.72263 -0.0936,-0.20171 -0.28974,-0.60032 -0.43553,-0.88668 -0.14577,-0.28636 -0.35732,-0.68735 -0.47069,-0.8906 -0.11353,-0.20321 -0.30879,-0.54024 -0.43358,-0.74801 -0.12478,-0.20791 -0.32013,-0.525 -0.43552,-0.70504 -0.11556,-0.1802 -0.28291,-0.43316 -0.37108,-0.56248 -0.0884,-0.12933 -0.24425,-0.35299 -0.34568,-0.49607 -0.10159,-0.14327 -0.29698,-0.41094 -0.43554,-0.59568 -0.13872,-0.18475 -0.38571,-0.50181 -0.5488,-0.70506 -0.16325,-0.20322 -0.41592,-0.50747 -0.56052,-0.67575 -0.14461,-0.16828 -0.38206,-0.4363 -0.52733,-0.59568 -0.14528,-0.15937 -0.40587,-0.43633 -0.58005,-0.6152 -0.17417,-0.17886 -0.45835,-0.46303 -0.63083,-0.63083 -0.17232,-0.16762 -0.4375,-0.41788 -0.58983,-0.55662 -0.15216,-0.13856 -0.38547,-0.34682 -0.5195,-0.46286 -0.13386,-0.11607 -0.35423,-0.30141 -0.48827,-0.4121 -0.13385,-0.11051 -0.31448,-0.2568 -0.40232,-0.32617 -0.0876,-0.0695 -0.27354,-0.21397 -0.41209,-0.32029 -0.13857,-0.10648 -0.35061,-0.26581 -0.47069,-0.3535 -0.12008,-0.0876 -0.37629,-0.2696 -0.57029,-0.40429 -0.19398,-0.13452 -0.49307,-0.33476 -0.66402,-0.44528 -0.17082,-0.11052 -0.46449,-0.2962 -0.65428,-0.4121 -0.18978,-0.11589 -0.47914,-0.28584 -0.64256,-0.37889 -0.16359,-0.0932 -0.4432,-0.2475 -0.62106,-0.34374 -0.17802,-0.0962 -0.51318,-0.26937 -0.74411,-0.38474 -0.23093,-0.11556 -0.56042,-0.27442 -0.73239,-0.35351 -0.17198,-0.079 -0.45438,-0.20583 -0.62888,-0.28124 -0.1745,-0.0754 -0.46952,-0.19741 -0.65426,-0.27146 -0.18474,-0.0739 -0.49679,-0.19579 -0.6953,-0.26953 -0.19852,-0.0739 -0.57336,-0.20501 -0.83199,-0.291 -0.25864,-0.086 -0.65133,-0.21038 -0.873,-0.27539 -0.22171,-0.0651 -0.5766,-0.16281 -0.78904,-0.21873 -0.21246,-0.0558 -0.56408,-0.14314 -0.78122,-0.19335 -0.21716,-0.0501 -0.56549,-0.12437 -0.77341,-0.16601 -0.20774,-0.0417 -0.53316,-0.1022 -0.72262,-0.13476 -0.18928,-0.0325 -0.47183,-0.0785 -0.62889,-0.10158 -0.15702,-0.023 -0.4363,-0.0606 -0.62105,-0.084 -0.18475,-0.0237 -0.53324,-0.0609 -0.77342,-0.084 -0.24017,-0.023 -0.61812,-0.0544 -0.8398,-0.0684 -0.22353,-0.0211 -0.60686,-0.0396 -0.85153,-0.0488 -0.24468,-0.009 -0.70381,-0.0151 -1.0234,-0.0137 z m 0.0102,3.02919 c 0.30483,-10e-4 0.74054,0.005 0.96676,0.0137 0.22641,0.009 0.5371,0.0254 0.68942,0.0351 0.15249,0.0102 0.40038,0.0294 0.55272,0.043 0.15251,0.0136 0.41708,0.0397 0.58786,0.0586 0.17098,0.0186 0.44701,0.0532 0.61327,0.0762 0.16626,0.023 0.46221,0.0673 0.65622,0.0996 0.19396,0.0323 0.52579,0.093 0.73825,0.13476 0.21245,0.042 0.54949,0.1143 0.74801,0.16015 0.19851,0.0457 0.51761,0.12438 0.7109,0.17577 0.19315,0.0514 0.49241,0.13499 0.66405,0.18555 0.17146,0.0506 0.48673,0.14888 0.69918,0.21874 0.21246,0.0698 0.53592,0.18248 0.72067,0.24999 0.18475,0.0674 0.42313,0.15593 0.52929,0.19725 0.10614,0.0413 0.30673,0.1224 0.44528,0.17968 0.13856,0.0572 0.38005,0.16093 0.53709,0.23046 0.15703,0.0697 0.45846,0.20961 0.66989,0.31053 0.21162,0.10107 0.54538,0.26682 0.7402,0.36913 0.195,0.1023 0.47523,0.25492 0.62303,0.33788 0.1478,0.0831 0.41874,0.24086 0.6035,0.35154 0.18473,0.11069 0.46091,0.281 0.61325,0.37889 0.15232,0.0978 0.38433,0.25038 0.51365,0.33788 0.12932,0.0876 0.33941,0.23574 0.46873,0.32811 0.12933,0.0922 0.35608,0.25844 0.50389,0.36912 0.14779,0.11085 0.41236,0.31481 0.58786,0.45507 0.17551,0.14023 0.4567,0.3749 0.62498,0.5195 0.16828,0.14462 0.43789,0.38026 0.59762,0.52538 0.15956,0.14492 0.50601,0.48057 0.7695,0.74411 0.26352,0.2635 0.59723,0.60799 0.74216,0.76755 0.14511,0.15972 0.38161,0.42822 0.52537,0.59567 0.14376,0.16744 0.36141,0.43064 0.48435,0.58396 0.12312,0.15316 0.33016,0.41688 0.45897,0.58787 0.12898,0.17081 0.31778,0.42897 0.4199,0.57223 0.1021,0.1431 0.31039,0.44874 0.46287,0.67966 0.15234,0.23094 0.34899,0.53898 0.43748,0.68356 0.0887,0.14445 0.24802,0.41227 0.35351,0.5957 0.10564,0.18338 0.26743,0.47677 0.36132,0.6523 0.0937,0.17551 0.25666,0.49262 0.36131,0.70506 0.10463,0.21246 0.25815,0.53789 0.34178,0.72263 0.0838,0.18474 0.22466,0.50929 0.31248,0.72262 0.0879,0.21347 0.23103,0.5819 0.31835,0.81638 0.0874,0.23463 0.22396,0.62309 0.30273,0.86324 0.0786,0.24017 0.18526,0.58032 0.23632,0.75582 0.0511,0.17552 0.12646,0.44646 0.16795,0.60349 0.0417,0.15705 0.11018,0.43184 0.15234,0.60936 0.042,0.17752 0.11286,0.50606 0.1582,0.73044 0.0456,0.2242 0.1131,0.58879 0.15039,0.81051 0.0373,0.22169 0.0882,0.54188 0.11131,0.71286 0.0231,0.17081 0.0558,0.44371 0.0742,0.60544 0.0183,0.16157 0.0497,0.47866 0.0684,0.70505 0.0186,0.22623 0.0432,0.56966 0.0547,0.76364 0.0119,0.20187 0.0195,0.73762 0.0195,1.25194 0,0.51426 -0.008,1.05001 -0.0195,1.25194 -0.0114,0.194 -0.0359,0.53724 -0.0547,0.76365 -0.0186,0.22621 -0.05,0.54332 -0.0684,0.70504 -0.0185,0.16157 -0.0529,0.43449 -0.0762,0.60545 -0.0233,0.17081 -0.0674,0.46809 -0.0996,0.66208 -0.0322,0.19398 -0.093,0.52776 -0.13477,0.7402 -0.0418,0.21245 -0.113,0.54427 -0.15818,0.73825 -0.0452,0.19398 -0.11527,0.48161 -0.15625,0.63865 -0.041,0.15703 -0.0966,0.35745 -0.12109,0.4453 -0.0247,0.0876 -0.0884,0.30609 -0.14256,0.48631 -0.0545,0.18002 -0.15948,0.50925 -0.23438,0.73043 -0.075,0.2212 -0.1938,0.553 -0.26366,0.73826 -0.0698,0.18525 -0.1872,0.48261 -0.25975,0.66012 -0.0727,0.17736 -0.19267,0.45975 -0.26757,0.62888 -0.0749,0.16897 -0.21136,0.46364 -0.30272,0.65427 -0.0913,0.19062 -0.25089,0.50838 -0.3535,0.70505 -0.10261,0.19685 -0.25734,0.48698 -0.3457,0.64451 -0.0884,0.15754 -0.22101,0.3869 -0.2949,0.51169 -0.074,0.12463 -0.21034,0.34827 -0.30272,0.49607 -0.0922,0.1478 -0.26645,0.41547 -0.38671,0.59568 -0.12042,0.18004 -0.30266,0.44459 -0.40427,0.58787 -0.10158,0.1431 -0.28882,0.40127 -0.41796,0.57224 -0.12916,0.17082 -0.33773,0.4377 -0.46287,0.59373 -0.12512,0.15603 -0.34277,0.4174 -0.48435,0.58201 -0.14141,0.16476 -0.37635,0.43204 -0.52147,0.59177 -0.14511,0.15954 -0.48076,0.50405 -0.74411,0.76754 -0.26351,0.26368 -0.60799,0.59903 -0.76754,0.74411 -0.15973,0.14495 -0.42825,0.38158 -0.59568,0.52537 -0.16745,0.14376 -0.42868,0.36141 -0.582,0.48436 -0.15318,0.12311 -0.41885,0.32998 -0.58984,0.45896 -0.1708,0.129 -0.42896,0.31637 -0.57223,0.41795 -0.14309,0.10158 -0.40765,0.28387 -0.58787,0.40428 -0.18005,0.12026 -0.44786,0.29451 -0.59567,0.38671 -0.14779,0.0924 -0.37129,0.2267 -0.49608,0.30077 -0.12479,0.0739 -0.35731,0.20895 -0.51756,0.29881 -0.16021,0.09 -0.44785,0.24594 -0.63864,0.34569 -0.1908,0.0997 -0.50711,0.25605 -0.70309,0.3496 -0.196,0.0934 -0.49314,0.23172 -0.66209,0.30662 -0.16896,0.0749 -0.43671,0.18907 -0.59372,0.2539 -0.15704,0.065 -0.4805,0.19316 -0.72068,0.28319 -0.24017,0.09 -0.64625,0.23097 -0.90035,0.31444 -0.25394,0.0835 -0.60376,0.19307 -0.77926,0.24412 -0.17551,0.0511 -0.46821,0.13233 -0.64841,0.17969 -0.18005,0.0473 -0.48567,0.12328 -0.67967,0.16796 -0.19398,0.0448 -0.5258,0.11638 -0.73824,0.1582 -0.21247,0.042 -0.52394,0.0989 -0.69139,0.12695 -0.16745,0.0281 -0.432,0.0692 -0.58787,0.0917 -0.15586,0.0227 -0.44907,0.0608 -0.6523,0.084 -0.20323,0.0231 -0.55482,0.0556 -0.78122,0.0742 -0.22623,0.0185 -0.5466,0.043 -0.71286,0.0527 -0.16627,0.0102 -0.60508,0.0216 -0.97457,0.0274 -0.40897,0.006 -0.86629,9.9e-4 -1.16798,-0.0102 -0.2724,-0.0106 -0.65363,-0.029 -0.84762,-0.043 -0.19398,-0.0137 -0.47327,-0.0371 -0.62107,-0.0508 -0.14779,-0.0139 -0.39761,-0.04 -0.55466,-0.0586 -0.15703,-0.0185 -0.39524,-0.0497 -0.52927,-0.0684 -0.13386,-0.0185 -0.37864,-0.0564 -0.54491,-0.084 -0.16626,-0.0276 -0.42443,-0.0735 -0.57224,-0.10158 -0.14779,-0.0281 -0.41236,-0.08 -0.58786,-0.11719 -0.1755,-0.037 -0.51566,-0.11598 -0.75583,-0.17577 -0.24017,-0.0598 -0.62122,-0.16172 -0.84763,-0.22655 -0.22623,-0.065 -0.58634,-0.17655 -0.79879,-0.24609 -0.21244,-0.0697 -0.5212,-0.17457 -0.68747,-0.23436 -0.16628,-0.0598 -0.46028,-0.17146 -0.65427,-0.24804 -0.19398,-0.0766 -0.48134,-0.19392 -0.63669,-0.25975 -0.15535,-0.0661 -0.41468,-0.18112 -0.57811,-0.25585 -0.16323,-0.0747 -0.49728,-0.23531 -0.74214,-0.3574 -0.24472,-0.12229 -0.57848,-0.29462 -0.74021,-0.38281 -0.16157,-0.088 -0.43241,-0.2414 -0.60154,-0.33982 -0.16896,-0.0984 -0.44593,-0.26399 -0.61521,-0.36913 -0.16946,-0.10497 -0.4671,-0.29757 -0.66208,-0.42772 -0.19482,-0.13016 -0.4768,-0.32591 -0.62693,-0.43357 -0.15014,-0.10766 -0.37656,-0.27323 -0.50388,-0.36913 -0.12731,-0.096 -0.3657,-0.28142 -0.52927,-0.41209 -0.16359,-0.13066 -0.39551,-0.32023 -0.51561,-0.42186 -0.12008,-0.10147 -0.2796,-0.23756 -0.3535,-0.30272 -0.0739,-0.0653 -0.2596,-0.23268 -0.41209,-0.37108 -0.15234,-0.13839 -0.48902,-0.46363 -0.74802,-0.72262 -0.2588,-0.25882 -0.58923,-0.60019 -0.73434,-0.75973 -0.14512,-0.15972 -0.38162,-0.42825 -0.52537,-0.59569 -0.14378,-0.16744 -0.36142,-0.42868 -0.48436,-0.582 -0.12311,-0.15317 -0.32983,-0.41902 -0.45896,-0.58982 -0.129,-0.17097 -0.31796,-0.42917 -0.41991,-0.57225 -0.10209,-0.14326 -0.31695,-0.46034 -0.47849,-0.70504 -0.16157,-0.24487 -0.39665,-0.61446 -0.52147,-0.82223 -0.12495,-0.20793 -0.29726,-0.507 -0.38474,-0.66404 -0.0877,-0.15703 -0.23867,-0.43632 -0.33594,-0.62106 -0.0973,-0.18476 -0.25985,-0.5102 -0.3613,-0.72263 -0.10148,-0.21246 -0.24278,-0.5148 -0.3125,-0.67185 -0.0695,-0.15704 -0.17318,-0.39854 -0.23045,-0.53709 -0.0572,-0.13855 -0.13836,-0.33914 -0.17968,-0.44529 -0.0413,-0.10631 -0.12992,-0.34454 -0.19726,-0.52928 -0.0675,-0.18475 -0.18013,-0.50822 -0.24999,-0.72067 -0.0698,-0.21246 -0.16819,-0.5277 -0.21874,-0.6992 -0.0506,-0.17164 -0.13414,-0.47089 -0.18553,-0.66402 -0.0514,-0.19332 -0.1301,-0.51239 -0.17579,-0.71091 -0.0459,-0.19869 -0.11816,-0.53558 -0.16014,-0.74802 -0.0418,-0.21246 -0.10251,-0.54622 -0.13476,-0.7402 -0.0325,-0.194 -0.0765,-0.4913 -0.0996,-0.66209 -0.0233,-0.17095 -0.0545,-0.4092 -0.0684,-0.52927 -0.0136,-0.12009 -0.0369,-0.33539 -0.0508,-0.47849 -0.0141,-0.14327 -0.037,-0.42255 -0.0508,-0.62107 -0.0138,-0.19869 -0.0323,-0.58498 -0.043,-0.85739 -0.0119,-0.3013 -0.0162,-0.75927 -0.0102,-1.16797 0.006,-0.36949 0.0177,-0.80323 0.0273,-0.96481 0.009,-0.16173 0.0288,-0.44607 0.043,-0.63083 0.0141,-0.18474 0.0436,-0.50509 0.0664,-0.71286 0.0226,-0.20792 0.0604,-0.5186 0.084,-0.68942 0.0237,-0.17098 0.0691,-0.46809 0.10159,-0.66208 0.0324,-0.19398 0.093,-0.52776 0.13476,-0.74021 0.042,-0.21245 0.11431,-0.54754 0.16015,-0.74606 0.0457,-0.19851 0.12438,-0.51956 0.17578,-0.71286 0.0514,-0.19314 0.13498,-0.49241 0.18554,-0.66404 0.0506,-0.17148 0.15376,-0.4964 0.2285,-0.72263 0.0745,-0.22639 0.18752,-0.55165 0.24999,-0.72262 0.0623,-0.17098 0.16269,-0.43553 0.22265,-0.58787 0.06,-0.15232 0.16173,-0.40233 0.22656,-0.55466 0.0648,-0.15233 0.1782,-0.40871 0.25193,-0.57029 0.0737,-0.16175 0.19729,-0.4263 0.27539,-0.58787 0.0779,-0.16174 0.21626,-0.43446 0.30662,-0.60545 0.0903,-0.17095 0.23654,-0.43862 0.3242,-0.59567 0.0877,-0.15703 0.26282,-0.45889 0.39062,-0.67185 0.12764,-0.21278 0.36773,-0.59204 0.53317,-0.84175 0.16527,-0.24975 0.37921,-0.56212 0.4746,-0.69529 0.0954,-0.13318 0.28653,-0.39335 0.42576,-0.57811 0.13906,-0.18474 0.35471,-0.4609 0.47849,-0.61325 0.12378,-0.1525 0.33564,-0.40576 0.47069,-0.56247 0.13486,-0.15671 0.36094,-0.41292 0.50388,-0.57029 0.14292,-0.15738 0.47668,-0.50207 0.74021,-0.7656 0.26351,-0.26352 0.60754,-0.59678 0.76558,-0.7402 0.1579,-0.14342 0.41934,-0.37365 0.58006,-0.5117 0.16074,-0.13805 0.40964,-0.34681 0.55272,-0.46286 0.14326,-0.11606 0.39947,-0.31776 0.57029,-0.44726 0.17097,-0.12966 0.4338,-0.322 0.58396,-0.42968 0.15014,-0.10747 0.42943,-0.3017 0.62106,-0.42966 0.19164,-0.12781 0.46938,-0.308 0.61716,-0.40037 0.14779,-0.0922 0.39762,-0.24321 0.55467,-0.33592 0.15703,-0.0926 0.39544,-0.22865 0.52927,-0.30273 0.13386,-0.074 0.36062,-0.1975 0.50389,-0.27342 0.14326,-0.0759 0.39948,-0.20575 0.57029,-0.28906 0.17097,-0.0832 0.35667,-0.17172 0.4121,-0.19725 0.0554,-0.0255 0.18681,-0.086 0.29295,-0.13476 0.10632,-0.0485 0.30035,-0.13419 0.42966,-0.18944 0.12933,-0.0551 0.40026,-0.16497 0.6035,-0.24608 0.20322,-0.0811 0.47941,-0.18796 0.61325,-0.23633 0.13403,-0.0483 0.38698,-0.13601 0.56248,-0.1953 0.17551,-0.0593 0.46314,-0.15294 0.63864,-0.20703 0.17551,-0.0543 0.48621,-0.14362 0.68944,-0.1992 0.20321,-0.0554 0.54141,-0.14214 0.75387,-0.19335 0.21245,-0.0512 0.53788,-0.12449 0.72263,-0.16211 0.18473,-0.0378 0.48071,-0.0936 0.65622,-0.12499 0.1755,-0.0315 0.44334,-0.0763 0.59568,-0.0996 0.15249,-0.0233 0.4285,-0.0627 0.61325,-0.0859 0.18474,-0.0231 0.48205,-0.0561 0.66208,-0.0742 0.18021,-0.0181 0.50562,-0.0457 0.72264,-0.0605 0.21716,-0.0148 0.54259,-0.0337 0.72261,-0.041 0.18022,-0.007 0.57602,-0.0143 0.88083,-0.0156 z m 0.22851,0.99802 c -0.56801,-0.003 -1.15487,-4.1e-4 -1.30273,0.008 -0.1478,0.008 -0.4238,0.0264 -0.61326,0.041 -0.18927,0.0146 -0.49163,0.042 -0.67184,0.0605 -0.18004,0.0186 -0.46769,0.0531 -0.63864,0.0762 -0.17081,0.023 -0.43031,0.0606 -0.57811,0.084 -0.1478,0.0233 -0.41237,0.0695 -0.58787,0.10158 -0.1755,0.0323 -0.46313,0.0893 -0.63864,0.12696 -0.17551,0.0376 -0.48098,0.10703 -0.67966,0.15624 -0.19851,0.0491 -0.4747,0.12203 -0.61326,0.16014 -0.13855,0.0381 -0.39984,0.11355 -0.58006,0.16797 -0.18005,0.0544 -0.49399,0.15557 -0.69723,0.2246 -0.20322,0.069 -0.49283,0.17191 -0.64449,0.22851 -0.1515,0.0566 -0.40772,0.15536 -0.5703,0.22069 -0.16241,0.0655 -0.44193,0.1825 -0.61912,0.25976 -0.17701,0.0771 -0.48903,0.22043 -0.69528,0.31835 -0.20607,0.0979 -0.47037,0.22646 -0.58592,0.28709 -0.11537,0.0605 -0.31597,0.16695 -0.44528,0.23632 -0.12933,0.0693 -0.38556,0.21398 -0.57029,0.3203 -0.18475,0.10613 -0.4755,0.28022 -0.64646,0.3867 -0.17081,0.10648 -0.45766,0.29073 -0.63669,0.41014 -0.17904,0.11941 -0.43198,0.29348 -0.56249,0.3867 -0.13048,0.0931 -0.36946,0.26867 -0.53123,0.39061 -0.16156,0.12194 -0.39832,0.30701 -0.52731,0.41014 -0.12899,0.10313 -0.36738,0.29866 -0.52928,0.43553 -0.16207,0.13705 -0.43137,0.37296 -0.59763,0.52341 -0.16627,0.15049 -0.5226,0.49311 -0.79098,0.76169 -0.26855,0.26872 -0.60021,0.61311 -0.73825,0.76559 -0.13806,0.15234 -0.33833,0.37911 -0.4453,0.50389 -0.10697,0.12462 -0.30119,0.35466 -0.42967,0.51169 -0.12848,0.15704 -0.35871,0.45299 -0.51169,0.65623 -0.15284,0.20321 -0.34949,0.4709 -0.43748,0.59569 -0.088,0.12479 -0.25065,0.363 -0.36132,0.52926 -0.11068,0.16627 -0.28804,0.44228 -0.39452,0.61325 -0.10647,0.17098 -0.28039,0.46173 -0.3867,0.64647 -0.10614,0.18475 -0.24569,0.43459 -0.31053,0.55467 -0.0648,0.12008 -0.17116,0.3205 -0.23632,0.44528 -0.0651,0.1248 -0.19895,0.39547 -0.29687,0.60154 -0.0981,0.20624 -0.24091,0.51828 -0.31834,0.69529 -0.0774,0.17718 -0.21277,0.50484 -0.30077,0.72654 -0.088,0.22168 -0.20972,0.53878 -0.26951,0.70503 -0.0598,0.16628 -0.16628,0.47872 -0.23632,0.69334 -0.07,0.21464 -0.17458,0.56118 -0.23437,0.77145 -0.06,0.21028 -0.15422,0.56341 -0.20897,0.78512 -0.0549,0.2217 -0.13034,0.54712 -0.16797,0.72263 -0.0375,0.17551 -0.0947,0.46314 -0.12695,0.63865 -0.0319,0.17551 -0.0782,0.44005 -0.10158,0.58785 -0.0232,0.1478 -0.0609,0.40715 -0.084,0.57811 -0.023,0.17081 -0.0578,0.45844 -0.0762,0.63865 -0.0184,0.18004 -0.0445,0.47929 -0.0586,0.66404 -0.0142,0.18474 -0.0336,0.48927 -0.043,0.6777 -0.009,0.18827 -0.0176,0.68071 -0.0176,1.09373 0,0.41299 0.008,0.90545 0.0176,1.09374 0.009,0.18843 0.0286,0.49294 0.043,0.67769 0.0141,0.18475 0.0401,0.48382 0.0586,0.66404 0.0184,0.18005 0.0532,0.46768 0.0762,0.63865 0.0231,0.17081 0.0606,0.4303 0.084,0.5781 0.0233,0.1478 0.0695,0.41236 0.10158,0.58786 0.0323,0.1755 0.0893,0.46315 0.12695,0.63865 0.0375,0.17551 0.11504,0.51238 0.17382,0.74802 0.0588,0.23547 0.15649,0.60038 0.21679,0.81052 0.0605,0.21026 0.1648,0.54713 0.23047,0.748 0.0657,0.20088 0.16675,0.49974 0.22655,0.666 0.0596,0.16627 0.18152,0.48531 0.26951,0.707 0.088,0.22169 0.22336,0.54738 0.30077,0.72457 0.0774,0.17703 0.22026,0.49099 0.31834,0.69724 0.0979,0.20607 0.2317,0.47676 0.29687,0.60154 0.0651,0.12461 0.17149,0.32521 0.23632,0.44529 0.0648,0.12008 0.20438,0.36798 0.31053,0.55272 0.10632,0.18474 0.28023,0.47549 0.3867,0.64645 0.10648,0.17081 0.29073,0.45766 0.41014,0.6367 0.11941,0.17903 0.2935,0.43197 0.38671,0.56247 0.0931,0.13049 0.26024,0.35805 0.37107,0.50584 0.11103,0.14781 0.25876,0.34183 0.32812,0.42967 0.0692,0.0876 0.23594,0.29043 0.36913,0.45116 0.13334,0.16072 0.32196,0.38262 0.4199,0.49412 0.0981,0.11134 0.27165,0.30647 0.3867,0.43162 0.11505,0.12495 0.35849,0.37714 0.53904,0.56052 0.18055,0.18324 0.46783,0.46363 0.63864,0.62302 0.17099,0.15938 0.39252,0.36277 0.49412,0.4531 0.10158,0.0905 0.33673,0.29147 0.52148,0.4453 0.18473,0.15385 0.43784,0.35944 0.56247,0.45701 0.12479,0.0974 0.35988,0.27493 0.52146,0.39452 0.16173,0.11957 0.38016,0.27731 0.48631,0.35154 0.1063,0.0743 0.31836,0.21868 0.47068,0.32031 0.1525,0.10147 0.41705,0.27044 0.58787,0.37693 0.17098,0.10648 0.46406,0.28244 0.65232,0.39062 0.1881,0.10814 0.48407,0.27283 0.65622,0.36522 0.17198,0.0926 0.48165,0.25155 0.68943,0.3535 0.20791,0.10199 0.52645,0.25251 0.707,0.33397 0.1807,0.0814 0.4663,0.2039 0.63473,0.27343 0.16829,0.0697 0.47441,0.19159 0.67966,0.26951 0.20524,0.0781 0.53063,0.1957 0.72457,0.26171 0.194,0.0658 0.51501,0.16855 0.71287,0.2285 0.19767,0.0599 0.46552,0.13788 0.59568,0.17383 0.13015,0.036 0.3764,0.10168 0.54685,0.14451 0.17047,0.0428 0.4612,0.11009 0.64646,0.15039 0.18525,0.0403 0.45764,0.097 0.60544,0.125 0.14781,0.0281 0.40403,0.0719 0.5703,0.0996 0.16626,0.0276 0.43918,0.0707 0.60544,0.0937 0.16628,0.023 0.44244,0.0572 0.61325,0.0762 0.17098,0.0189 0.44192,0.0449 0.60349,0.0586 0.16175,0.0137 0.43139,0.0352 0.59763,0.0469 0.20037,0.0142 0.67303,0.0198 1.40227,0.0195 0.88089,-2.9e-4 1.17913,-0.006 1.5019,-0.0293 0.22168,-0.0161 0.52094,-0.041 0.66403,-0.0547 0.14326,-0.0136 0.39309,-0.0396 0.55466,-0.0586 0.16173,-0.019 0.44936,-0.0564 0.63865,-0.084 0.18945,-0.0275 0.45402,-0.0687 0.58787,-0.0919 0.13402,-0.0231 0.43115,-0.0804 0.66208,-0.12695 0.23093,-0.0464 0.63177,-0.1359 0.89058,-0.19921 0.25898,-0.0632 0.64855,-0.1667 0.86521,-0.22851 0.21665,-0.0615 0.59165,-0.17512 0.83199,-0.25389 0.24017,-0.0786 0.59504,-0.20171 0.78903,-0.27343 0.19399,-0.0719 0.48643,-0.18449 0.65036,-0.25 0.16393,-0.0656 0.45154,-0.18773 0.63864,-0.26951 0.18711,-0.0818 0.45649,-0.20363 0.59958,-0.27147 0.14327,-0.0677 0.41618,-0.20241 0.60545,-0.29882 0.18944,-0.0964 0.46779,-0.24317 0.61911,-0.32615 0.15151,-0.0832 0.41278,-0.2307 0.58006,-0.32813 0.16729,-0.0973 0.43606,-0.25952 0.59764,-0.36129 0.16173,-0.10158 0.41795,-0.26736 0.57028,-0.36914 0.15234,-0.102 0.37911,-0.25802 0.50389,-0.34569 0.12479,-0.0875 0.36302,-0.25996 0.52927,-0.38474 0.16629,-0.12479 0.4341,-0.33338 0.59569,-0.46287 0.16173,-0.12966 0.39681,-0.32353 0.52145,-0.42967 0.1248,-0.10631 0.29903,-0.25786 0.38671,-0.33593 0.0879,-0.0782 0.30299,-0.2757 0.47849,-0.43944 0.17551,-0.16375 0.46315,-0.44417 0.63866,-0.62302 0.17566,-0.1787 0.40682,-0.41974 0.51365,-0.53513 0.10682,-0.11555 0.2791,-0.30764 0.38473,-0.42771 0.10565,-0.12009 0.26845,-0.30905 0.36132,-0.41991 0.0931,-0.11085 0.2715,-0.32926 0.39647,-0.4863 0.12479,-0.15705 0.33717,-0.43323 0.47069,-0.61327 0.13351,-0.1802 0.30271,-0.4153 0.37693,-0.52146 0.0743,-0.10631 0.21869,-0.31834 0.32031,-0.47068 0.10148,-0.15249 0.2724,-0.41709 0.37888,-0.58787 0.10648,-0.17097 0.28048,-0.46403 0.38866,-0.65231 0.10816,-0.18812 0.27301,-0.48212 0.36522,-0.65427 0.0924,-0.17197 0.25139,-0.48362 0.35349,-0.69139 0.10209,-0.20792 0.25297,-0.52895 0.33594,-0.71285 0.0829,-0.18391 0.21501,-0.48862 0.29295,-0.67771 0.0777,-0.18911 0.19726,-0.49259 0.26561,-0.6738 0.0684,-0.18121 0.18029,-0.49751 0.24999,-0.7031 0.0697,-0.20556 0.18142,-0.54899 0.24608,-0.76364 0.0647,-0.2148 0.15372,-0.53032 0.19922,-0.70114 0.0456,-0.17097 0.12126,-0.47332 0.16796,-0.67185 0.0468,-0.19868 0.11867,-0.53049 0.16014,-0.73825 0.0417,-0.20792 0.1023,-0.53645 0.13477,-0.73043 0.0323,-0.194 0.0785,-0.48997 0.10158,-0.65622 0.023,-0.16629 0.0573,-0.44249 0.0762,-0.61327 0.0187,-0.17097 0.0448,-0.44191 0.0586,-0.60349 0.0137,-0.16174 0.0352,-0.42941 0.0469,-0.59567 0.0141,-0.19835 0.0215,-0.67571 0.0215,-1.3867 0,-0.71091 -0.007,-1.1864 -0.0215,-1.38475 -0.0118,-0.16627 -0.0332,-0.43605 -0.0469,-0.59763 -0.0138,-0.16174 -0.0399,-0.43267 -0.0586,-0.6035 -0.0188,-0.17097 -0.0534,-0.447 -0.0762,-0.61325 -0.023,-0.16628 -0.076,-0.50143 -0.11717,-0.74411 -0.0412,-0.24286 -0.11297,-0.62392 -0.16015,-0.84762 -0.0472,-0.22388 -0.12657,-0.56904 -0.17578,-0.76755 -0.0493,-0.19853 -0.12007,-0.47469 -0.1582,-0.61326 -0.0381,-0.13855 -0.11861,-0.41145 -0.17772,-0.60544 -0.0591,-0.19398 -0.16073,-0.51107 -0.22655,-0.70504 -0.0661,-0.194 -0.17594,-0.50038 -0.24414,-0.68163 -0.0684,-0.1812 -0.18787,-0.48467 -0.26561,-0.67379 -0.0779,-0.18911 -0.21188,-0.49905 -0.29687,-0.68747 -0.085,-0.18861 -0.24416,-0.52243 -0.35349,-0.74411 -0.10951,-0.2217 -0.26692,-0.53238 -0.35155,-0.68943 -0.0848,-0.15702 -0.24116,-0.43631 -0.34765,-0.62107 -0.10631,-0.18474 -0.28023,-0.47548 -0.3867,-0.64646 -0.10648,-0.17097 -0.27743,-0.43552 -0.37888,-0.58787 -0.10158,-0.15232 -0.24606,-0.36453 -0.32031,-0.47067 -0.0742,-0.10614 -0.23195,-0.32473 -0.35155,-0.48632 -0.11958,-0.16172 -0.29709,-0.39683 -0.3945,-0.52145 -0.0976,-0.12478 -0.30319,-0.37772 -0.45702,-0.56248 -0.15384,-0.18474 -0.35476,-0.41984 -0.4453,-0.52146 -0.0903,-0.10158 -0.29373,-0.3233 -0.4531,-0.49412 -0.15939,-0.17098 -0.43978,-0.46005 -0.62302,-0.6406 -0.18341,-0.18054 -0.43556,-0.42203 -0.56052,-0.53709 -0.12496,-0.11504 -0.3384,-0.30652 -0.47459,-0.42575 -0.13622,-0.11925 -0.3517,-0.30289 -0.4785,-0.40819 -0.12681,-0.10532 -0.37525,-0.30291 -0.55076,-0.43944 -0.1755,-0.13654 -0.44645,-0.34262 -0.60349,-0.45701 -0.15704,-0.11437 -0.46773,-0.32953 -0.68943,-0.4785 -0.22169,-0.14897 -0.54189,-0.35655 -0.71286,-0.46288 -0.17098,-0.10648 -0.46172,-0.28038 -0.64645,-0.38669 -0.18475,-0.10632 -0.46598,-0.26266 -0.62302,-0.34765 -0.15705,-0.085 -0.4805,-0.25267 -0.72067,-0.37107 -0.24017,-0.11841 -0.61031,-0.29267 -0.82224,-0.38671 -0.21196,-0.0939 -0.57206,-0.24329 -0.7988,-0.33397 -0.22673,-0.0907 -0.55998,-0.21836 -0.74019,-0.28319 -0.18005,-0.0648 -0.49207,-0.17176 -0.69529,-0.23827 -0.20323,-0.0663 -0.54011,-0.1705 -0.74802,-0.23046 -0.20776,-0.0598 -0.57458,-0.15717 -0.81441,-0.21679 -0.23984,-0.0596 -0.59471,-0.14276 -0.78904,-0.18358 -0.19432,-0.0409 -0.4785,-0.097 -0.63084,-0.125 -0.15232,-0.0281 -0.42017,-0.0723 -0.59567,-0.0996 -0.1755,-0.0273 -0.50403,-0.0733 -0.73044,-0.10158 -0.22622,-0.0281 -0.58635,-0.0654 -0.7988,-0.084 -0.21245,-0.0185 -0.49813,-0.0424 -0.63669,-0.0527 -0.13856,-0.0102 -0.71692,-0.0204 -1.28512,-0.0235 z m -0.0102,0.45311 c 0.56347,0.002 1.13869,0.0132 1.27734,0.0234 0.13855,0.0102 0.38332,0.029 0.5449,0.043 0.16174,0.0138 0.43464,0.0417 0.60544,0.0606 0.17097,0.0188 0.44386,0.0531 0.60545,0.0762 0.16173,0.023 0.42941,0.0641 0.59567,0.0917 0.16627,0.0279 0.45718,0.0799 0.64645,0.11719 0.18945,0.0372 0.46236,0.0947 0.60545,0.12694 0.14327,0.0325 0.37954,0.0898 0.52733,0.12695 0.1478,0.037 0.3798,0.0958 0.51365,0.1328 0.13401,0.0368 0.40167,0.11666 0.59567,0.17579 0.19399,0.059 0.4977,0.15615 0.67575,0.21678 0.17802,0.0608 0.44766,0.15695 0.59763,0.21288 0.14999,0.0559 0.42594,0.16346 0.61521,0.24023 0.18945,0.0768 0.47493,0.19608 0.63279,0.26561 0.15786,0.0693 0.44672,0.20298 0.64254,0.29686 0.19601,0.0939 0.50037,0.24713 0.67772,0.33983 0.17752,0.0927 0.43254,0.2301 0.56637,0.30468 0.13403,0.0744 0.39533,0.22556 0.58007,0.33592 0.18475,0.11035 0.46092,0.27903 0.61325,0.37694 0.15233,0.0978 0.37092,0.24383 0.48631,0.32225 0.11557,0.0784 0.31598,0.21653 0.44528,0.30858 0.12934,0.0922 0.37589,0.27317 0.54686,0.40232 0.17097,0.12916 0.44553,0.3456 0.61131,0.48045 0.16577,0.13487 0.43343,0.36198 0.59568,0.50389 0.16224,0.14192 0.42827,0.38093 0.58981,0.53123 0.16175,0.15049 0.45558,0.43872 0.65428,0.6406 0.19869,0.20187 0.4449,0.45751 0.54686,0.56834 0.10178,0.11083 0.29075,0.32287 0.4199,0.47068 0.12914,0.14779 0.33428,0.38928 0.45505,0.53709 0.12059,0.14779 0.30528,0.38289 0.4121,0.52146 0.1068,0.13856 0.29027,0.38318 0.40818,0.5449 0.11773,0.16156 0.34717,0.49355 0.50975,0.73824 0.16274,0.24472 0.37341,0.5703 0.46678,0.72264 0.0932,0.15232 0.24534,0.41051 0.33786,0.57223 0.0924,0.16158 0.21705,0.38326 0.27734,0.49412 0.0601,0.11086 0.21131,0.40682 0.33592,0.65622 0.12463,0.24942 0.29527,0.60429 0.3789,0.78904 0.0837,0.18473 0.21742,0.49271 0.29686,0.68551 0.0793,0.19282 0.20127,0.50351 0.27147,0.68944 0.0702,0.18592 0.19393,0.53845 0.27538,0.78317 0.0814,0.24468 0.19768,0.6143 0.2578,0.82223 0.0601,0.20775 0.13849,0.49536 0.17577,0.63865 0.0373,0.14308 0.10159,0.40454 0.14258,0.58004 0.041,0.17552 0.10841,0.49262 0.15038,0.70504 0.042,0.21247 0.0992,0.52123 0.12695,0.68748 0.0275,0.16627 0.0651,0.41283 0.084,0.54685 0.0188,0.13386 0.0497,0.36704 0.0684,0.51952 0.0185,0.15233 0.0484,0.44517 0.0663,0.64841 0.0179,0.20321 0.0426,0.51198 0.0547,0.68747 0.0144,0.20978 0.0234,0.67916 0.0234,1.36909 0,0.68995 -0.009,1.15937 -0.0234,1.36909 -0.0121,0.1755 -0.0368,0.48424 -0.0547,0.68747 -0.018,0.20321 -0.048,0.49397 -0.0663,0.64645 -0.0186,0.15234 -0.0493,0.38744 -0.0684,0.52147 -0.0188,0.13386 -0.0562,0.38058 -0.084,0.54685 -0.0274,0.16628 -0.0799,0.457 -0.11718,0.64646 -0.0373,0.18928 -0.10158,0.49163 -0.14257,0.67185 -0.041,0.18005 -0.10841,0.45934 -0.15039,0.62106 -0.0418,0.16158 -0.12524,0.46394 -0.18554,0.67185 -0.0601,0.20775 -0.17324,0.5659 -0.24998,0.79685 -0.0768,0.23092 -0.19903,0.58252 -0.27344,0.78121 -0.0742,0.19852 -0.20145,0.52082 -0.28123,0.71482 -0.08,0.19397 -0.21323,0.50272 -0.29686,0.68747 -0.0838,0.18475 -0.25116,0.53323 -0.37108,0.77341 -0.11991,0.24017 -0.28756,0.56361 -0.37303,0.72067 -0.0856,0.15703 -0.22506,0.40685 -0.31054,0.55466 -0.0855,0.14779 -0.23657,0.39762 -0.33397,0.55466 -0.0974,0.15703 -0.28167,0.44406 -0.41014,0.63669 -0.12848,0.1928 -0.30913,0.45737 -0.40232,0.58787 -0.0931,0.13066 -0.26352,0.36113 -0.3789,0.51366 -0.11538,0.15232 -0.3009,0.39072 -0.41209,0.52926 -0.11101,0.13857 -0.33183,0.40314 -0.49021,0.58787 -0.15853,0.18475 -0.38839,0.44603 -0.5117,0.58006 -0.12327,0.13385 -0.38053,0.40125 -0.57029,0.59372 -0.18995,0.19247 -0.47692,0.47238 -0.63865,0.62302 -0.16156,0.15049 -0.39996,0.3653 -0.52927,0.4785 -0.12932,0.11319 -0.34859,0.30113 -0.48631,0.416 -0.13788,0.11505 -0.37938,0.30887 -0.53709,0.43163 -0.15787,0.12275 -0.42355,0.3232 -0.58981,0.44528 -0.16629,0.12211 -0.51283,0.36443 -0.77146,0.53709 -0.25863,0.17267 -0.60493,0.39401 -0.7695,0.49412 -0.16459,0.10015 -0.47005,0.28132 -0.67966,0.40037 -0.20959,0.11907 -0.62737,0.33925 -0.92769,0.49022 -0.30012,0.15116 -0.69804,0.34231 -0.88277,0.42576 -0.18476,0.0837 -0.49272,0.21744 -0.68553,0.29686 -0.1928,0.0793 -0.5035,0.20128 -0.68941,0.27148 -0.18593,0.0702 -0.53847,0.19588 -0.78318,0.27733 -0.24471,0.0814 -0.61432,0.19572 -0.82223,0.25585 -0.20775,0.0603 -0.53973,0.15223 -0.73825,0.20312 -0.19851,0.0509 -0.49778,0.12159 -0.66404,0.1582 -0.16627,0.0367 -0.43918,0.0943 -0.60545,0.12694 -0.16627,0.0326 -0.43722,0.0819 -0.60348,0.10938 -0.16628,0.0279 -0.41283,0.0651 -0.54686,0.084 -0.13385,0.0191 -0.36702,0.0497 -0.5195,0.0684 -0.15233,0.0185 -0.44323,0.0484 -0.64646,0.0663 -0.20322,0.018 -0.51392,0.0426 -0.68942,0.0547 -0.20977,0.0144 -0.67917,0.0215 -1.36909,0.0215 -0.69076,0 -1.15917,-0.007 -1.36909,-0.0215 -0.17551,-0.0121 -0.48423,-0.0367 -0.68747,-0.0547 -0.20323,-0.0181 -0.49397,-0.0481 -0.64645,-0.0663 -0.15233,-0.0185 -0.38743,-0.0494 -0.52147,-0.0684 -0.13384,-0.0188 -0.37821,-0.0564 -0.54294,-0.084 -0.16476,-0.0275 -0.47352,-0.085 -0.68747,-0.12696 -0.21397,-0.042 -0.59551,-0.12557 -0.84763,-0.18553 -0.25225,-0.0601 -0.61876,-0.15388 -0.81441,-0.20899 -0.19584,-0.0551 -0.52644,-0.15356 -0.73435,-0.21873 -0.20776,-0.065 -0.5467,-0.17694 -0.75192,-0.24999 -0.20507,-0.0731 -0.51381,-0.18979 -0.68748,-0.2578 -0.17348,-0.0682 -0.43615,-0.17385 -0.58396,-0.23632 -0.1478,-0.0625 -0.40907,-0.17742 -0.58005,-0.25585 -0.1708,-0.0784 -0.49312,-0.23484 -0.71481,-0.34569 -0.2217,-0.11102 -0.49264,-0.25057 -0.60348,-0.31054 -0.11086,-0.06 -0.27039,-0.14665 -0.35351,-0.19335 -0.0832,-0.0467 -0.2407,-0.13828 -0.35155,-0.20311 -0.11085,-0.0648 -0.33984,-0.20267 -0.50779,-0.30663 -0.16778,-0.1038 -0.44398,-0.28165 -0.61325,-0.39451 -0.16914,-0.11303 -0.43982,-0.29866 -0.60155,-0.41405 -0.16156,-0.11537 -0.40305,-0.29467 -0.53709,-0.39647 -0.13385,-0.10158 -0.33756,-0.25916 -0.4531,-0.35154 -0.11538,-0.0922 -0.27489,-0.22177 -0.35351,-0.2871 -0.0784,-0.0655 -0.22961,-0.19312 -0.33591,-0.28515 -0.10616,-0.0921 -0.31312,-0.27791 -0.46092,-0.41209 -0.1478,-0.13436 -0.42974,-0.40346 -0.62693,-0.59763 -0.19717,-0.19398 -0.48739,-0.48798 -0.64254,-0.65427 -0.15503,-0.16627 -0.39729,-0.4354 -0.53906,-0.59763 -0.1419,-0.16225 -0.36723,-0.4299 -0.50192,-0.59568 -0.13469,-0.16577 -0.35114,-0.44243 -0.48045,-0.61325 -0.12931,-0.17099 -0.31199,-0.41715 -0.40623,-0.54881 -0.0942,-0.13167 -0.29119,-0.41991 -0.43749,-0.64059 -0.14628,-0.22053 -0.35316,-0.54459 -0.45897,-0.71873 -0.10598,-0.17416 -0.25715,-0.42978 -0.33592,-0.56834 -0.079,-0.13856 -0.19337,-0.3462 -0.25584,-0.46091 -0.0624,-0.11489 -0.21512,-0.4089 -0.33788,-0.65427 -0.12277,-0.24555 -0.29195,-0.60044 -0.37694,-0.78904 -0.0848,-0.18842 -0.21697,-0.49837 -0.2949,-0.68747 -0.0777,-0.18911 -0.19744,-0.49257 -0.26563,-0.6738 -0.0684,-0.1812 -0.17483,-0.47615 -0.23631,-0.65622 -0.0613,-0.1802 -0.16074,-0.48961 -0.2207,-0.68747 -0.0599,-0.19768 -0.13789,-0.46552 -0.17382,-0.59567 -0.0359,-0.13017 -0.0957,-0.35804 -0.1328,-0.50584 -0.0371,-0.14779 -0.0945,-0.38619 -0.12695,-0.52929 -0.0322,-0.14324 -0.0879,-0.4142 -0.12499,-0.60348 -0.0373,-0.18944 -0.0915,-0.48019 -0.11915,-0.64646 -0.0274,-0.16627 -0.0653,-0.40972 -0.084,-0.53903 -0.0186,-0.12934 -0.0497,-0.36391 -0.0684,-0.52148 -0.0186,-0.15753 -0.0483,-0.45155 -0.0664,-0.65426 -0.0181,-0.20272 -0.0427,-0.50888 -0.0547,-0.67966 -0.0143,-0.20424 -0.0215,-0.67621 -0.0215,-1.37687 0,-0.70067 0.007,-1.17269 0.0215,-1.37687 0.0119,-0.17098 0.0366,-0.47694 0.0547,-0.67966 0.0181,-0.20271 0.0478,-0.49674 0.0664,-0.65428 0.0186,-0.15754 0.0531,-0.41519 0.0762,-0.57224 0.0228,-0.15702 0.0677,-0.43631 0.0996,-0.62106 0.0319,-0.18474 0.0925,-0.50704 0.13476,-0.71482 0.0423,-0.20791 0.12153,-0.55953 0.17577,-0.78121 0.0543,-0.2217 0.12984,-0.51571 0.16796,-0.65427 0.0383,-0.13857 0.11861,-0.41146 0.17773,-0.60545 0.059,-0.19398 0.15616,-0.49775 0.21679,-0.67575 0.0608,-0.17803 0.15695,-0.44571 0.21288,-0.59567 0.0559,-0.14999 0.16346,-0.4279 0.24022,-0.61717 0.0768,-0.18946 0.1977,-0.47375 0.26757,-0.63279 0.07,-0.15921 0.20115,-0.44358 0.291,-0.63083 0.0898,-0.18742 0.24164,-0.49101 0.33788,-0.67575 0.096,-0.18474 0.23598,-0.44622 0.31054,-0.58005 0.0744,-0.13404 0.23684,-0.41331 0.36131,-0.62108 0.12445,-0.20792 0.3514,-0.56786 0.50389,-0.79878 0.15233,-0.23095 0.34913,-0.52168 0.43747,-0.64647 0.0882,-0.1248 0.27287,-0.37774 0.4121,-0.56248 0.13923,-0.18475 0.35473,-0.46092 0.47848,-0.61325 0.12379,-0.15251 0.31078,-0.37405 0.41406,-0.49412 0.10329,-0.12009 0.29647,-0.34065 0.42968,-0.48826 0.13317,-0.14763 0.40805,-0.43759 0.61129,-0.6445 0.20322,-0.20677 0.50884,-0.50498 0.67965,-0.66404 0.17097,-0.15889 0.38304,-0.35384 0.47069,-0.43163 0.0879,-0.0779 0.20956,-0.18279 0.26952,-0.23436 0.0601,-0.0514 0.15683,-0.13531 0.21679,-0.18554 0.0601,-0.0504 0.20803,-0.17015 0.32811,-0.26757 0.12009,-0.0976 0.35847,-0.28276 0.52928,-0.41208 0.17098,-0.12916 0.42719,-0.31977 0.5703,-0.42187 0.14324,-0.10199 0.4392,-0.30219 0.65622,-0.44529 0.21715,-0.14326 0.51098,-0.33225 0.65426,-0.4199 0.14326,-0.0879 0.39309,-0.23381 0.55466,-0.32616 0.16175,-0.0923 0.39577,-0.22415 0.51952,-0.291 0.1236,-0.067 0.41761,-0.21786 0.65426,-0.33592 0.23647,-0.11807 0.58086,-0.28372 0.76559,-0.36718 0.18475,-0.0837 0.49545,-0.21691 0.68943,-0.29686 0.19398,-0.0798 0.51106,-0.203 0.70506,-0.27538 0.19396,-0.0724 0.49882,-0.18334 0.6777,-0.24413 0.17886,-0.0609 0.50119,-0.16256 0.7148,-0.22656 0.21364,-0.0638 0.48538,-0.14284 0.60545,-0.17577 0.12009,-0.0328 0.38999,-0.10138 0.59959,-0.15233 0.20943,-0.0511 0.54958,-0.12582 0.75582,-0.16797 0.20609,-0.042 0.52617,-0.10286 0.71091,-0.13477 0.18476,-0.0318 0.46403,-0.0768 0.62107,-0.0996 0.15703,-0.0231 0.41472,-0.0575 0.57225,-0.0762 0.15755,-0.0186 0.45154,-0.0483 0.65426,-0.0664 0.20271,-0.0183 0.51197,-0.0408 0.68747,-0.0508 0.17551,-0.0102 0.3581,-0.0202 0.40429,-0.0235 0.0462,-0.003 0.54389,-0.005 1.10735,-0.002 z m -12.50099,6.73013 -1.80655,1.87106 c -0.9934,1.02973 -1.80654,1.87945 -1.80654,1.88661 0,0.007 0.98234,0.97483 2.18348,2.1503 1.20114,1.17547 2.18225,2.14231 2.17958,2.14835 -0.003,0.006 -0.0685,0.11187 -0.14647,0.23631 -0.0777,0.12447 -0.20726,0.34305 -0.28905,0.48631 -0.0816,0.14309 -0.23471,0.43074 -0.33983,0.63865 -0.10514,0.20776 -0.2408,0.48704 -0.30077,0.62107 -0.0598,0.13385 -0.16501,0.38697 -0.23437,0.56248 -0.0695,0.1755 -0.17024,0.44528 -0.22264,0.59762 -0.0522,0.15234 -0.14271,0.44323 -0.20116,0.64647 -0.0583,0.20322 -0.13932,0.52339 -0.18164,0.71285 -0.0425,0.18928 -0.10138,0.47691 -0.1289,0.63865 -0.0278,0.16156 -0.0654,0.41138 -0.084,0.55466 -0.0186,0.1431 -0.0447,0.38461 -0.0586,0.53709 -0.0137,0.15233 -0.0332,0.47269 -0.043,0.71287 -0.0102,0.24017 -0.0129,0.57394 -0.008,0.7402 0.005,0.16626 0.0163,0.42561 0.0254,0.5781 0.009,0.15233 0.0288,0.39071 0.043,0.52927 0.0141,0.13856 0.0369,0.33586 0.0508,0.43748 0.0137,0.10158 0.0483,0.31677 0.0762,0.4785 0.0279,0.16157 0.0806,0.42942 0.11718,0.59568 0.0368,0.16628 0.1042,0.44184 0.15039,0.6113 0.0464,0.16946 0.12633,0.43712 0.17772,0.59568 0.0514,0.15854 0.13955,0.40881 0.19531,0.55661 0.0557,0.1478 0.14746,0.38292 0.20506,0.52147 0.0577,0.13855 0.16805,0.38317 0.24413,0.5449 0.0761,0.16156 0.20265,0.41467 0.28125,0.56247 0.0786,0.14779 0.20471,0.37458 0.27928,0.50389 0.0745,0.12932 0.19356,0.3299 0.26562,0.4453 l 0.13085,0.20896 -0.0977,0.0996 c -0.0529,0.0541 -1.03383,1.01731 -2.18153,2.14057 -1.1478,1.12312 -2.08784,2.04718 -2.08784,2.05455 0,0.007 0.81264,0.85661 1.80655,1.88662 l 1.80848,1.873 1.20115,-1.21283 c 0.66122,-0.66727 1.64977,-1.66154 2.19526,-2.20887 l 0.99214,-0.99605 0.16405,0.10937 c 0.0902,0.0603 0.27082,0.17814 0.40232,0.25975 0.13152,0.0816 0.3633,0.21757 0.51562,0.30273 0.15249,0.085 0.42213,0.22422 0.59762,0.31052 0.17552,0.0863 0.45168,0.21435 0.61326,0.28321 0.16173,0.0689 0.42629,0.1739 0.58787,0.23435 0.16174,0.0605 0.44103,0.15568 0.62106,0.21094 0.18022,0.0554 0.44479,0.13067 0.58787,0.16796 0.14327,0.0375 0.38475,0.0946 0.53709,0.12695 0.15249,0.0325 0.41379,0.0817 0.58005,0.10937 0.16628,0.0279 0.42576,0.0653 0.5781,0.084 0.15251,0.0185 0.42541,0.0459 0.60544,0.0606 0.18022,0.0144 0.55816,0.0316 0.83981,0.0371 0.30685,0.006 0.66419,0.002 0.89059,-0.0102 0.20792,-0.0106 0.50193,-0.031 0.65427,-0.0448 0.1525,-0.0139 0.42067,-0.0433 0.59568,-0.0664 0.17502,-0.0233 0.41961,-0.0611 0.5449,-0.084 0.12528,-0.0228 0.36826,-0.0734 0.53904,-0.11132 0.17098,-0.0378 0.45493,-0.10882 0.63279,-0.1582 0.17785,-0.0496 0.44747,-0.1314 0.59763,-0.18164 0.15014,-0.0501 0.38131,-0.13398 0.51365,-0.18554 0.13234,-0.0516 0.33278,-0.1323 0.44529,-0.17968 0.11253,-0.0473 0.33957,-0.15212 0.50585,-0.23241 0.16626,-0.0801 0.40448,-0.19971 0.52926,-0.26757 0.12479,-0.0679 0.32833,-0.18389 0.45311,-0.2578 0.12479,-0.074 0.35863,-0.22084 0.51951,-0.32615 l 0.29297,-0.19141 2.20108,2.20887 2.20109,2.21082 1.81433,-1.873 c 0.99761,-1.03015 1.81442,-1.88047 1.81442,-1.88856 0,-0.008 -0.97628,-0.96765 -2.16791,-2.13279 -1.19163,-1.16521 -2.17334,-2.12808 -2.18153,-2.14057 -0.0104,-0.0155 0.02,-0.0763 0.0957,-0.19726 0.0601,-0.096 0.17541,-0.28806 0.25585,-0.42576 0.0806,-0.13772 0.21934,-0.39067 0.31054,-0.56248 0.0912,-0.17165 0.23703,-0.46694 0.32421,-0.65623 0.087,-0.18945 0.22111,-0.50014 0.29686,-0.68942 0.0758,-0.18945 0.19023,-0.49819 0.2539,-0.68747 0.0635,-0.18944 0.15664,-0.49292 0.20702,-0.6738 0.0504,-0.18072 0.12109,-0.4631 0.1582,-0.62888 0.0371,-0.16559 0.0861,-0.40777 0.10937,-0.53709 0.0231,-0.12932 0.0572,-0.33628 0.0762,-0.46091 0.0186,-0.12478 0.05,-0.37463 0.0684,-0.55467 0.0183,-0.18021 0.0419,-0.4909 0.0527,-0.68942 0.0124,-0.22506 0.0158,-0.57571 0.0102,-0.9316 -0.005,-0.31406 -0.0207,-0.70675 -0.0352,-0.87301 -0.0146,-0.16628 -0.0467,-0.4508 -0.0702,-0.63084 -0.0238,-0.1802 -0.0684,-0.4672 -0.0996,-0.63864 -0.031,-0.17149 -0.0885,-0.44767 -0.12695,-0.61326 -0.0383,-0.16577 -0.10666,-0.4341 -0.15235,-0.59568 -0.0457,-0.16172 -0.1311,-0.44103 -0.19138,-0.62107 -0.0603,-0.18021 -0.16507,-0.46768 -0.23242,-0.63864 -0.0675,-0.17098 -0.16885,-0.4123 -0.2246,-0.53708 -0.0556,-0.12479 -0.14625,-0.32016 -0.20117,-0.43554 -0.0551,-0.11554 -0.16185,-0.32759 -0.23828,-0.47068 -0.0764,-0.14326 -0.18462,-0.34058 -0.24022,-0.43748 -0.0556,-0.0971 -0.17293,-0.29232 -0.25975,-0.43358 -0.0869,-0.14141 -0.15518,-0.26181 -0.15233,-0.26953 0.003,-0.007 0.98347,-0.97236 2.17958,-2.14251 1.19634,-1.17013 2.17569,-2.13443 2.17569,-2.14252 0,-0.008 -0.81676,-0.85711 -1.81442,-1.88662 l -1.81433,-1.87105 -2.20108,2.19914 -2.20109,2.19915 -0.21679,-0.14062 c -0.11941,-0.0777 -0.29743,-0.1902 -0.39452,-0.24999 -0.0969,-0.06 -0.2692,-0.16156 -0.38475,-0.22656 -0.11538,-0.065 -0.3127,-0.17293 -0.43748,-0.23827 -0.12479,-0.0655 -0.36895,-0.18421 -0.54295,-0.26365 -0.17416,-0.0793 -0.45853,-0.19939 -0.63082,-0.26757 -0.17233,-0.068 -0.46383,-0.17306 -0.64842,-0.23437 -0.18458,-0.0613 -0.45553,-0.14489 -0.60349,-0.18553 -0.14797,-0.0405 -0.4027,-0.10529 -0.56443,-0.14259 -0.16156,-0.0373 -0.44085,-0.0931 -0.62107,-0.12499 -0.18005,-0.0317 -0.44789,-0.0729 -0.59568,-0.0918 -0.1478,-0.0192 -0.39436,-0.0466 -0.54685,-0.0606 -0.15233,-0.0139 -0.45798,-0.0345 -0.67966,-0.0448 -0.23462,-0.0111 -0.59629,-0.0143 -0.86519,-0.008 -0.25395,0.006 -0.56792,0.0179 -0.69725,0.0273 -0.12932,0.009 -0.3772,0.032 -0.5527,0.0508 -0.17551,0.0186 -0.44515,0.0528 -0.59764,0.0762 -0.15233,0.0233 -0.40857,0.0694 -0.57028,0.10159 -0.16158,0.0322 -0.44609,0.0959 -0.63084,0.14257 -0.18474,0.0467 -0.46715,0.1264 -0.62888,0.17578 -0.16156,0.0494 -0.38834,0.12291 -0.50389,0.16406 -0.11537,0.0414 -0.27817,0.10087 -0.36131,0.1328 -0.0832,0.0319 -0.28417,0.11568 -0.44725,0.18554 -0.16308,0.0698 -0.44237,0.19987 -0.62106,0.28905 -0.1787,0.0892 -0.40812,0.20774 -0.50975,0.26366 -0.10158,0.0559 -0.30204,0.17214 -0.44529,0.2578 -0.14309,0.0855 -0.34681,0.21316 -0.45311,0.2832 l -0.19334,0.1289 -2.19525,-2.20109 z m 11.99001,7.29467 c 0.18946,0.004 0.43928,0.0164 0.55467,0.0254 0.11555,0.009 0.30451,0.0286 0.4199,0.043 0.11556,0.0144 0.31089,0.0439 0.43554,0.0663 0.12479,0.0226 0.35188,0.0716 0.50389,0.10937 0.15182,0.0378 0.3878,0.10504 0.52536,0.15039 0.13756,0.0452 0.34582,0.12272 0.46287,0.16991 0.1169,0.0472 0.32077,0.13606 0.4531,0.19921 0.13235,0.0632 0.3444,0.17437 0.47069,0.24608 0.1263,0.0719 0.33242,0.19795 0.45702,0.28124 0.12478,0.0835 0.29903,0.20548 0.3867,0.27148 0.0879,0.0659 0.25685,0.20278 0.37693,0.30272 0.12009,0.10014 0.35959,0.32101 0.53123,0.49216 0.17165,0.17115 0.3893,0.40283 0.48436,0.51365 0.095,0.11085 0.24969,0.30293 0.34373,0.42772 0.0941,0.12478 0.22311,0.30524 0.2871,0.40234 0.064,0.0969 0.16894,0.26476 0.23242,0.37106 0.0633,0.10615 0.18532,0.3362 0.27147,0.51171 0.0863,0.17551 0.19731,0.42533 0.24803,0.55467 0.0507,0.12931 0.12776,0.34148 0.16992,0.47262 0.042,0.13118 0.10529,0.36107 0.14258,0.5117 0.0373,0.15049 0.0867,0.37663 0.10936,0.50194 0.0228,0.12545 0.0592,0.36892 0.0801,0.53903 0.0339,0.27695 0.0371,0.38272 0.0371,1.02144 0,0.63872 -0.003,0.74647 -0.0371,1.0234 -0.0208,0.17015 -0.0575,0.4136 -0.0801,0.53904 -0.0228,0.1253 -0.0749,0.36612 -0.11718,0.53709 -0.0423,0.1708 -0.11663,0.43211 -0.166,0.58006 -0.0494,0.14779 -0.13316,0.37144 -0.18555,0.49606 -0.0522,0.12447 -0.14511,0.32712 -0.20507,0.4492 -0.06,0.12211 -0.16111,0.31086 -0.2246,0.42187 -0.0635,0.11085 -0.17249,0.28838 -0.24217,0.39452 -0.0697,0.10597 -0.19376,0.28322 -0.27538,0.39256 -0.0816,0.1095 -0.22635,0.29313 -0.32226,0.40818 -0.0958,0.11487 -0.32138,0.35636 -0.50193,0.53708 -0.18038,0.1809 -0.42152,0.40858 -0.53709,0.50585 -0.11538,0.0973 -0.29041,0.23791 -0.38865,0.31248 -0.0984,0.0744 -0.2694,0.19436 -0.37889,0.26757 -0.1095,0.073 -0.25485,0.16715 -0.32421,0.20897 -0.0692,0.0418 -0.22458,0.13142 -0.34569,0.19726 -0.12092,0.0656 -0.30679,0.15753 -0.41209,0.20508 -0.10531,0.0477 -0.28174,0.122 -0.39256,0.166 -0.11085,0.0438 -0.32056,0.11948 -0.46482,0.16601 -0.14427,0.0467 -0.37104,0.11033 -0.50389,0.14257 -0.13286,0.0324 -0.32089,0.0734 -0.41796,0.0919 -0.0969,0.0185 -0.28587,0.0499 -0.4199,0.0684 -0.13385,0.0185 -0.3459,0.0431 -0.47068,0.0547 -0.12462,0.0115 -0.45333,0.0215 -0.73044,0.0215 -0.27712,0 -0.6006,-0.0102 -0.72068,-0.0215 -0.12008,-0.0111 -0.3058,-0.0312 -0.41208,-0.0448 -0.10616,-0.0139 -0.29839,-0.045 -0.42773,-0.0684 -0.12932,-0.0233 -0.35659,-0.0725 -0.50387,-0.10938 -0.1473,-0.037 -0.36245,-0.0974 -0.4785,-0.13476 -0.11606,-0.0375 -0.33578,-0.11776 -0.48826,-0.17773 -0.15233,-0.0601 -0.39072,-0.16455 -0.52928,-0.23241 -0.13856,-0.0677 -0.357,-0.18596 -0.48631,-0.26171 -0.12932,-0.0758 -0.31501,-0.19084 -0.41209,-0.25585 -0.0969,-0.0648 -0.26315,-0.18082 -0.36913,-0.25975 -0.10597,-0.0791 -0.28972,-0.22683 -0.41013,-0.32812 -0.12042,-0.10107 -0.36303,-0.32786 -0.53905,-0.50388 -0.17601,-0.17618 -0.40061,-0.41584 -0.49801,-0.53122 -0.0973,-0.11557 -0.23792,-0.29039 -0.3125,-0.38867 -0.0744,-0.0984 -0.19433,-0.26743 -0.26756,-0.37693 -0.0732,-0.10951 -0.18445,-0.28454 -0.24609,-0.38865 -0.0613,-0.10397 -0.17073,-0.30862 -0.24413,-0.45507 -0.0732,-0.14626 -0.17695,-0.36759 -0.2285,-0.49021 -0.0517,-0.12277 -0.13354,-0.34532 -0.18359,-0.49412 -0.0501,-0.1488 -0.1178,-0.37146 -0.15039,-0.49607 -0.0326,-0.12479 -0.0818,-0.33994 -0.10937,-0.47849 -0.0279,-0.13857 -0.0657,-0.36534 -0.084,-0.50389 -0.0181,-0.13856 -0.0417,-0.35894 -0.0527,-0.48826 -0.0113,-0.12932 -0.0213,-0.44328 -0.0215,-0.69724 0,-0.2541 0.009,-0.56597 0.0195,-0.69529 0.0111,-0.12932 0.0313,-0.32351 0.0448,-0.42967 0.0136,-0.1063 0.0443,-0.30167 0.0684,-0.43552 0.0241,-0.13403 0.0744,-0.36585 0.11132,-0.51366 0.0368,-0.14779 0.11031,-0.40071 0.16405,-0.56247 0.0539,-0.16157 0.1449,-0.4021 0.20117,-0.53513 0.0562,-0.13318 0.17198,-0.37975 0.2578,-0.54686 0.0858,-0.16694 0.22178,-0.40791 0.30272,-0.53709 0.0809,-0.12914 0.21007,-0.32111 0.28514,-0.42576 0.0751,-0.10445 0.20346,-0.27622 0.28709,-0.38084 0.0837,-0.10463 0.24111,-0.28828 0.3496,-0.40819 0.1085,-0.12008 0.28869,-0.3062 0.40037,-0.41404 0.11169,-0.10767 0.29076,-0.27217 0.39843,-0.36522 0.10765,-0.0932 0.31065,-0.25327 0.4492,-0.35741 0.13856,-0.10413 0.33915,-0.24557 0.44529,-0.31444 0.10632,-0.0688 0.27224,-0.17097 0.36913,-0.22655 0.0971,-0.0557 0.27444,-0.15097 0.39452,-0.21093 0.12008,-0.0599 0.30593,-0.14734 0.41208,-0.19335 0.10632,-0.0462 0.28913,-0.11894 0.4082,-0.1621 0.11924,-0.0432 0.33127,-0.11204 0.47068,-0.15233 0.13957,-0.0401 0.34248,-0.0929 0.45114,-0.11719 0.10867,-0.0242 0.30601,-0.062 0.43749,-0.084 0.13151,-0.0223 0.35199,-0.0533 0.49022,-0.0684 0.13805,-0.0152 0.36808,-0.0333 0.5117,-0.041 0.1436,-0.008 0.41616,-0.0106 0.60543,-0.006 z"
       transform="translate(-228,-322)" />
  </g>
</svg>
