<svg xmlns="http://www.w3.org/2000/svg" data-name="Слой 1" width="78" height="78" style=""><rect id="backgroundrect" width="100%" height="100%" x="0" y="0" fill="none" stroke="none" class="" style=""/><defs><style>.cls-1{fill:#1d4f8a;}.cls-2{fill:#1a1a1a;}</style></defs><g class="currentLayer" style=""><title>Layer 1</title><path class="cls-1" d="M39.24043931931257,59.09000861367224 a9.65,9.65 0 0 0 -6.84,2.83 a11.2,11.2 0 0 1 -15.86,0 a9.68,9.68 0 1 0 0,13.69 a11.23,11.23 0 0 1 15.86,0 a9.68,9.68 0 1 0 6.84,-16.52 z" id="svg_1"/><path class="cls-1" d="M68.79043931931255,59.09000861367224 a9.67,9.67 0 1 0 6.87,2.8600000000000003 A9.65,9.65 0 0 0 68.79043931931255,59.09000861367224 z" id="svg_2"/><path class="cls-1" d="M39.24043931931257,0.000008613672207502532 a9.67,9.67 0 1 0 6.87,2.8600000000000003 A9.65,9.65 0 0 0 39.24043931931257,0.000008613672207502532 z" id="svg_3"/><path class="cls-1" d="M68.79043931931255,0.000008613672207502532 a9.67,9.67 0 1 0 6.87,2.8600000000000003 A9.65,9.65 0 0 0 68.79043931931255,0.000008613672207502532 z" id="svg_4"/><path class="cls-1" d="M75.60043931931256,46.09000861367224 l0.09000000000000004,-0.09000000000000004 a9.67,9.67 0 0 0 -13.74,-13.620000000000001 a11.24,11.24 0 0 1 -15.870000000000001,0 a9.67,9.67 0 1 0 0,13.68 a11.24,11.24 0 0 1 15.870000000000001,0 A9.7,9.7 0 0 0 75.60043931931256,46.09000861367224 z" id="svg_5"/><path class="cls-1" d="M11.550439319312574,48.710008613672244 a5.35,5.35 0 0 0 0.6900000000000004,-0.17 l0.22000000000000006,-0.05000000000000002 c0.22000000000000006,-0.06000000000000002 0.4300000000000001,-0.14 0.6400000000000002,-0.22000000000000006 l0.25,-0.09000000000000004 c0.18000000000000005,-0.07 0.3400000000000002,-0.16000000000000006 0.51,-0.24000000000000005 l0.3600000000000001,-0.17 c0.12000000000000002,-0.06000000000000002 0.22000000000000006,-0.13 0.3400000000000002,-0.2 l0.4900000000000001,-0.2900000000000001 l0.11000000000000003,-0.08000000000000003 a9.21,9.21 0 0 0 1.37,-1.1400000000000001 a9.67,9.67 0 0 0 0,-13.68 s0,0 0,0 a11.22,11.22 0 0 1 0,-15.83 a9.7,9.7 0 0 0 0,-13.66 l-0.08000000000000003,-0.08000000000000003 a9.68,9.68 0 0 0 -13.63,13.74 a11.22,11.22 0 0 1 0,15.82 h0 a9.45,9.45 0 0 0 -0.6700000000000004,0.7500000000000002 a2.34,2.34 0 0 0 -0.2,0.27 c-0.13,0.16000000000000006 -0.26,0.3300000000000001 -0.3800000000000001,0.51 a1.59,1.59 0 0 0 -0.13,0.22000000000000006 a6.34,6.34 0 0 0 -0.3700000000000001,0.6200000000000002 s0,0 0,0.05000000000000002 a9.64,9.64 0 0 0 0,8.83 a0.8300000000000002,0.8300000000000002 0 0 0 0.07,0.13 c0.09000000000000004,0.17 0.19000000000000006,0.3400000000000002 0.2900000000000001,0.5 l0.2,0.3400000000000002 l0.15000000000000005,0.2 a10,10 0 0 0 1.07,1.29 a10.19,10.19 0 0 0 1.45,1.19 l0,0 l0.54,0.3300000000000001 l0.2900000000000001,0.17 l0.3900000000000001,0.18000000000000005 a5.11,5.11 0 0 0 0.4800000000000001,0.22000000000000006 l0.28,0.1 a6.32,6.32 0 0 0 0.6100000000000002,0.22000000000000006 l0.24000000000000005,0.06000000000000002 c0.22000000000000006,0.06000000000000002 0.4400000000000001,0.12000000000000002 0.6700000000000004,0.16000000000000006 l0.3100000000000001,0.05000000000000002 c0.21000000000000005,0 0.4100000000000001,0.07 0.6200000000000002,0.09000000000000004 s0.6200000000000002,0 0.93,0 h0 c0.3200000000000001,0 0.6300000000000002,0 0.9400000000000002,0 s0.4100000000000001,-0.06000000000000002 0.6200000000000002,-0.09000000000000004 z" id="svg_6"/></g></svg>