<svg id="Layer_1" data-name="Layer 1" xmlns="http://www.w3.org/2000/svg" viewBox="0 0 958.32 1039.71"><defs><style>.cls-1{fill:#e41e26;}.cls-2{fill:#231f20;}</style></defs><title>JFIN Project</title><path class="cls-1" d="M372.07,690.82A356.6,356.6,0,0,0,743.88,108.64a37.93,37.93,0,0,0-55.48,51.73A280.69,280.69,0,1,1,435.83,75.32,37.93,37.93,0,0,0,423,.56a356.59,356.59,0,0,0-50.88,690.26Z"/><path class="cls-1" d="M571,85.29A38,38,0,1,0,546.59,37.4l-.09.27A37.81,37.81,0,0,0,571,85.29Z"/><path class="cls-2" d="M620.63,125.25l-.74,312c0,96.76-66.6,146.3-164,146.3S291.14,516.84,291.14,420.09V407.67h70.61v14.38c0,58.84,37.91,97.41,94.14,97.41s76-37.84,76-96.68l6.93-297.53Z"/><path class="cls-2" d="M330.84,818.71v63.93H454.76v55.25H330.84v101.82H260.6V763.46H465.42v55.25Z"/><path class="cls-2" d="M538.42,1039.71V763.46h70.25v276.25Z"/><path class="cls-2" d="M896.36,1039.71,769.28,869.62v170.09h-65.9V763.46h62L892.81,934V763.46h65.51v276.25Z"/><path class="cls-2" d="M190.61,947c0,58.8-36.7,92.74-95.5,92.74-39.07,0-70.64-16.18-95.11-44.2l32.36-47c19.73,20.52,41.83,30.78,58,30.78,18.55,0,29.6-11.45,29.6-33.94l.27-185.48h70.37Z"/></svg>