<?xml version="1.0" encoding="utf-8"?>
<!-- Svg Vector Icons : http://www.onlinewebfonts.com/icon -->
<!DOCTYPE svg PUBLIC "-//W3C//DTD SVG 1.1//EN" "http://www.w3.org/Graphics/SVG/1.1/DTD/svg11.dtd">
<svg version="1.1" xmlns="http://www.w3.org/2000/svg" xmlns:xlink="http://www.w3.org/1999/xlink" x="0px" y="0px" viewBox="0 0 1000 1000" enable-background="new 0 0 1000 1000" xml:space="preserve">
<metadata> Svg Vector Icons : http://www.onlinewebfonts.com/icon </metadata>
<g><g transform="translate(0.000000,511.000000) scale(0.100000,-0.100000)"><path d="M4414.3,4982.3C2772.5,4782.9,1359.2,3785.9,615.8,2302.9C-1.8,1073.5-67.7-403.7,433.8-1675.7c669.9-1694,2197.4-2869.2,4001.8-3080.2c1322.3-154.9,2679.5,247.8,3701.7,1099.6C9641.6-2399.8,10249.5-396,9701.6,1505.2c-240.1,836.4-758.9,1663.1-1409.4,2241.9C7512,4446.1,6590.4,4862.3,5566.2,4982.3C5270,5017.2,4704.7,5017.2,4414.3,4982.3z M5423,4002.7c867.3-94.9,1657.3-464.6,2286.5-1072.6c352.3-340.7,596.3-675.7,807.3-1103.5c946.7-1938,141.3-4278.7-1802.4-5229.2c-915.7-447.2-1965.1-518.9-2942.8-199.4c-985.4,323.3-1821.8,1053.2-2284.5,1998C822.9-248.8,999.1,1371.6,1942,2552.6c151,187.8,472.4,507.2,658.3,652.5c546,425.9,1266.2,720.2,1955.4,797.6C4768.6,4025.9,5206.1,4027.9,5423,4002.7z"/><path d="M4733.7,3071.5c-15.5-15.5-23.2-129.7-23.2-383.3v-362l-321.4-23.2c-400.8-27.1-604-56.1-660.2-91l-44.5-27.1V115.1c0-1949.6,1.9-2069.6,34.8-2098.7c40.7-38.7,387.2-71.6,745.4-71.6h245.9v-315.6c0-218.8,7.7-323.3,23.2-338.8c15.5-15.5,120-23.2,338.8-23.2h315.6l19.4,50.3c11.6,27.1,19.4,185.9,19.4,354.3v305.9l151,25.2c627.3,100.7,1080.3,439.5,1227.5,919.6c58.1,189.7,58.1,472.4-1.9,648.6c-89.1,265.2-319.5,518.9-592.4,658.3c-69.7,34.8-125.8,65.8-125.8,69.7c0,3.9,50.3,38.7,110.4,77.4c569.2,364,646.6,1105.5,162.6,1539.2c-154.9,139.4-447.2,278.8-689.2,331.1c-106.5,21.3-205.2,42.6-216.8,46.5c-19.4,5.8-25.2,92.9-25.2,360.1c0,290.4-5.8,364-31,398.8c-29,40.7-40.6,42.6-334.9,42.6C4849.9,3094.7,4749.2,3087,4733.7,3071.5z M5333.9,1671.7c172.3-34.8,284.6-87.1,379.5-174.2c199.4-178.1,197.5-516.9-5.8-704.7c-191.7-176.2-404.6-234.3-865.4-234.3h-325.2v557.6c0,307.8,5.8,565.3,13.6,571.1C4555.6,1712.4,5200.3,1700.8,5333.9,1671.7z M5339.7-109.4c298.1-60,515-195.5,613.7-383.3c36.8-67.8,44.5-112.3,44.5-265.2c0-154.9-7.8-197.5-44.5-267.2c-89.1-168.4-263.3-290.4-516.9-362c-87.1-25.2-218.8-36.8-516.9-42.6l-402.7-9.7v691.2v693.1l334.9-11.6C5041.6-72.7,5250.6-90.1,5339.7-109.4z"/></g></g>
</svg>